<svg width="86" height="86" viewBox="0 0 86 86" fill="none" xmlns="http://www.w3.org/2000/svg">
<g filter="url(#filter0_d_0_1)">
<circle cx="43" cy="39" r="39" fill="#30FFF3"/>
<circle cx="43" cy="39" r="38.5" stroke="black"/>
</g>
<g filter="url(#filter1_d_0_1)">
<circle cx="42.5" cy="38.5" r="32.5" fill="#10A0BF"/>
</g>
<g filter="url(#filter2_d_0_1)">
<path d="M53.448 38.8L42.696 38.48C41.5013 38.48 38.088 38.5653 32.456 38.736C31.6027 40.528 30.472 42.9813 29.064 46.096C24.9253 55.312 20.8293 62.992 16.776 69.136C13.4907 74.0853 11.016 76.56 9.352 76.56C8.62667 76.56 8.02933 76.304 7.56 75.792C7.09067 75.3227 6.856 74.6613 6.856 73.808C6.856 72.9547 7.32533 71.952 8.264 70.8C9.16 69.648 10.312 68.3893 11.72 67.024C13.0853 65.7013 14.8987 63.4827 17.16 60.368C19.3787 57.2533 21.512 53.6693 23.56 49.616C23.9013 48.976 25.6293 45.3707 28.744 38.8H28.424C27.7413 38.8 27.144 38.608 26.632 38.224C26.1627 37.7973 25.928 37.2213 25.928 36.496C25.928 35.7707 26.184 35.1733 26.696 34.704C27.208 34.2347 27.8693 34 28.68 34C29.5333 34 30.344 34.0213 31.112 34.064C35.0373 26.0427 38.6213 20.496 41.864 17.424C34.2693 18.0213 30.152 18.32 29.512 18.32C28.9147 18.32 28.3387 18.1067 27.784 17.68C27.272 17.2533 27.016 16.6987 27.016 16.016C27.016 15.2907 27.272 14.6933 27.784 14.224C28.3387 13.712 28.936 13.456 29.576 13.456L43.528 13.84L58.696 13.456C59.464 13.456 60.0827 13.6907 60.552 14.16C61.0213 14.6293 61.256 15.248 61.256 16.016C61.256 16.7413 61 17.3173 60.488 17.744C60.0187 18.128 59.4 18.32 58.632 18.32H57.096C57.096 25.1467 57.3733 31.312 57.928 36.816C58.4827 42.32 59.0373 46.5653 59.592 49.552C60.1467 52.5387 60.424 54.4373 60.424 55.248C60.424 56.016 60.168 56.7413 59.656 57.424C59.1867 58.064 58.5467 58.384 57.736 58.384C56.9253 58.384 56.2213 58.0853 55.624 57.488C55.0267 56.8907 54.6853 56.0373 54.6 54.928L53.448 38.8ZM52.296 17.552L50.376 17.488C45.2987 18.128 40.0933 23.6747 34.76 34.128C39.2827 34.2133 42.1413 34.256 43.336 34.256C44.5733 34.256 47.8373 34.1707 53.128 34C52.5733 26.6613 52.296 21.1787 52.296 17.552Z" fill="black"/>
<path d="M53.448 38.8L53.9467 38.7644L53.9145 38.3137L53.4629 38.3002L53.448 38.8ZM42.696 38.48L42.7109 37.9802L42.7034 37.98H42.696V38.48ZM32.456 38.736L32.4409 38.2362L32.1358 38.2455L32.0046 38.521L32.456 38.736ZM29.064 46.096L28.6084 45.89L28.6079 45.8912L29.064 46.096ZM16.776 69.136L17.1926 69.4125L17.1934 69.4113L16.776 69.136ZM7.56 75.792L7.92858 75.4541L7.92124 75.4461L7.91355 75.4384L7.56 75.792ZM8.264 70.8L8.65172 71.1159L8.65867 71.107L8.264 70.8ZM11.72 67.024L11.3721 66.6649L11.3719 66.6651L11.72 67.024ZM17.16 60.368L17.5646 60.6618L17.5672 60.6581L17.16 60.368ZM23.56 49.616L23.1187 49.3806L23.1137 49.3905L23.56 49.616ZM28.744 38.8L29.1958 39.0142L29.5343 38.3H28.744V38.8ZM26.632 38.224L26.2957 38.594L26.3131 38.6098L26.332 38.624L26.632 38.224ZM26.696 34.704L26.3581 34.3354L26.3581 34.3354L26.696 34.704ZM31.112 34.064L31.0843 34.5632L31.4154 34.5816L31.5611 34.2838L31.112 34.064ZM41.864 17.424L42.2079 17.787L43.2342 16.8147L41.8248 16.9255L41.864 17.424ZM27.784 17.68L27.4639 18.0641L27.4714 18.0704L27.4791 18.0763L27.784 17.68ZM27.784 14.224L28.1219 14.5926L28.1231 14.5914L27.784 14.224ZM29.576 13.456L29.5898 12.956H29.576V13.456ZM43.528 13.84L43.5142 14.3398L43.5275 14.3402L43.5407 14.3398L43.528 13.84ZM58.696 13.456L58.696 12.9558L58.6833 12.9562L58.696 13.456ZM60.552 14.16L60.9056 13.8064L60.9056 13.8064L60.552 14.16ZM60.488 17.744L60.8046 18.131L60.8081 18.1281L60.488 17.744ZM57.096 18.32V17.82H56.596V18.32H57.096ZM57.928 36.816L58.4255 36.7659L58.4255 36.7659L57.928 36.816ZM59.592 49.552L59.1004 49.6433L59.592 49.552ZM59.656 57.424L59.256 57.124L59.2528 57.1283L59.656 57.424ZM55.624 57.488L55.2704 57.8416L55.2704 57.8416L55.624 57.488ZM54.6 54.928L54.1013 54.9636L54.1015 54.9663L54.6 54.928ZM52.296 17.552H52.796V17.0684L52.3127 17.0523L52.296 17.552ZM50.376 17.488L50.3927 16.9883L50.3529 16.987L50.3135 16.9919L50.376 17.488ZM34.76 34.128L34.3146 33.9008L33.9513 34.6128L34.7506 34.6279L34.76 34.128ZM53.128 34L53.1441 34.4997L53.6659 34.4829L53.6266 33.9623L53.128 34ZM53.4629 38.3002L42.7109 37.9802L42.6811 38.9798L53.4331 39.2998L53.4629 38.3002ZM42.696 37.98C41.4919 37.98 38.0692 38.0657 32.4409 38.2362L32.4711 39.2358C38.1068 39.065 41.5108 38.98 42.696 38.98V37.98ZM32.0046 38.521C31.1492 40.3174 30.0169 42.7742 28.6084 45.89L29.5196 46.302C30.9271 43.1885 32.0562 40.7386 32.9074 38.951L32.0046 38.521ZM28.6079 45.8912C24.4765 55.091 20.3929 62.7456 16.3586 68.8607L17.1934 69.4113C21.2658 63.2384 25.3742 55.533 29.5201 46.3008L28.6079 45.8912ZM16.3594 68.8595C14.7243 71.3227 13.3056 73.1473 12.1024 74.3504C11.501 74.9519 10.9655 75.3858 10.4954 75.6669C10.0229 75.9494 9.64587 76.06 9.352 76.06V77.06C9.89013 77.06 10.4465 76.8613 11.0086 76.5251C11.5732 76.1876 12.1736 75.6935 12.8096 75.0576C14.0811 73.786 15.5423 71.8986 17.1926 69.4125L16.3594 68.8595ZM9.352 76.06C8.7598 76.06 8.29856 75.8578 7.92858 75.4541L7.19142 76.1299C7.7601 76.7502 8.49353 77.06 9.352 77.06V76.06ZM7.91355 75.4384C7.56272 75.0876 7.356 74.5684 7.356 73.808H6.356C6.356 74.7543 6.61861 75.5577 7.20645 76.1456L7.91355 75.4384ZM7.356 73.808C7.356 73.1284 7.73705 72.2383 8.65162 71.1158L7.87638 70.4842C6.91362 71.6657 6.356 72.781 6.356 73.808H7.356ZM8.65867 71.107C9.53647 69.9784 10.6715 68.7372 12.0681 67.383L11.3719 66.6651C9.95249 68.0415 8.78353 69.3176 7.86932 70.493L8.65867 71.107ZM12.0679 67.3831C13.4657 66.029 15.2998 63.7812 17.5646 60.6618L16.7554 60.0742C14.4975 63.1842 12.7049 65.3737 11.3721 66.6649L12.0679 67.3831ZM17.5672 60.6581C19.8029 57.5195 21.9489 53.9133 24.0063 49.8415L23.1137 49.3905C21.0751 53.4254 18.9544 56.9871 16.7528 60.0779L17.5672 60.6581ZM24.0012 49.8513C24.3498 49.1976 26.0856 45.5755 29.1958 39.0142L28.2922 38.5858C25.1731 45.1658 23.4529 48.7544 23.1188 49.3807L24.0012 49.8513ZM28.744 38.3H28.424V39.3H28.744V38.3ZM28.424 38.3C27.8418 38.3 27.3515 38.1386 26.932 37.824L26.332 38.624C26.9365 39.0774 27.6408 39.3 28.424 39.3V38.3ZM26.9683 37.854C26.6187 37.5362 26.428 37.1028 26.428 36.496H25.428C25.428 37.3399 25.7067 38.0585 26.2957 38.594L26.9683 37.854ZM26.428 36.496C26.428 35.9038 26.6302 35.4426 27.0339 35.0726L26.3581 34.3354C25.7378 34.9041 25.428 35.6375 25.428 36.496H26.428ZM27.0339 35.0726C27.4384 34.7017 27.9721 34.5 28.68 34.5V33.5C27.7665 33.5 26.9776 33.7676 26.3581 34.3354L27.0339 35.0726ZM28.68 34.5C29.5251 34.5 30.3264 34.5211 31.0843 34.5632L31.1397 33.5648C30.3616 33.5215 29.5416 33.5 28.68 33.5V34.5ZM31.5611 34.2838C35.4811 26.2734 39.0332 20.7946 42.2079 17.787L41.5201 17.061C38.2095 20.1974 34.5936 25.8119 30.6629 33.8442L31.5611 34.2838ZM41.8248 16.9255C34.2118 17.5243 30.1261 17.82 29.512 17.82V18.82C30.1779 18.82 34.3269 18.5184 41.9032 17.9225L41.8248 16.9255ZM29.512 17.82C29.0431 17.82 28.5717 17.6551 28.0889 17.2837L27.4791 18.0763C28.1056 18.5582 28.7862 18.82 29.512 18.82V17.82ZM28.1041 17.2959C27.7092 16.9668 27.516 16.5544 27.516 16.016H26.516C26.516 16.8429 26.8348 17.5398 27.4639 18.0641L28.1041 17.2959ZM27.516 16.016C27.516 15.4238 27.7182 14.9626 28.1219 14.5926L27.4461 13.8554C26.8258 14.4241 26.516 15.1575 26.516 16.016H27.516ZM28.1231 14.5914C28.6031 14.1484 29.0838 13.956 29.576 13.956V12.956C28.7882 12.956 28.0743 13.2756 27.4449 13.8566L28.1231 14.5914ZM29.5622 13.9558L43.5142 14.3398L43.5418 13.3402L29.5898 12.9562L29.5622 13.9558ZM43.5407 14.3398L58.7087 13.9558L58.6833 12.9562L43.5153 13.3402L43.5407 14.3398ZM58.696 13.956C59.3539 13.956 59.8377 14.1528 60.1984 14.5135L60.9056 13.8064C60.3276 13.2285 59.5741 12.956 58.696 12.956V13.956ZM60.1984 14.5135C60.5592 14.8743 60.756 15.3581 60.756 16.016H61.756C61.756 15.1379 61.4835 14.3844 60.9056 13.8064L60.1984 14.5135ZM60.756 16.016C60.756 16.6078 60.5549 17.0374 60.1679 17.3599L60.8081 18.1281C61.4451 17.5973 61.756 16.8748 61.756 16.016H60.756ZM60.1714 17.357C59.813 17.6502 59.316 17.82 58.632 17.82V18.82C59.484 18.82 60.2243 18.6058 60.8046 18.131L60.1714 17.357ZM58.632 17.82H57.096V18.82H58.632V17.82ZM56.596 18.32C56.596 25.1597 56.8738 31.3422 57.4305 36.8661L58.4255 36.7659C57.8728 31.2818 57.596 25.1336 57.596 18.32H56.596ZM57.4305 36.8661C57.9857 42.3747 58.5419 46.6362 59.1004 49.6433L60.0836 49.4607C59.5327 46.4945 58.9797 42.2653 58.4255 36.7659L57.4305 36.8661ZM59.1004 49.6433C59.6579 52.645 59.924 54.4933 59.924 55.248H60.924C60.924 54.3814 60.6355 52.4323 60.0836 49.4607L59.1004 49.6433ZM59.924 55.248C59.924 55.8958 59.7107 56.5178 59.256 57.124L60.056 57.724C60.6253 56.9649 60.924 56.1362 60.924 55.248H59.924ZM59.2528 57.1283C58.88 57.6367 58.3914 57.884 57.736 57.884V58.884C58.7019 58.884 59.4933 58.4913 60.0592 57.7197L59.2528 57.1283ZM57.736 57.884C57.064 57.884 56.4855 57.6424 55.9776 57.1344L55.2704 57.8416C55.9572 58.5283 56.7866 58.884 57.736 58.884V57.884ZM55.9776 57.1344C55.4883 56.6452 55.1777 55.9183 55.0985 54.8897L54.1015 54.9663C54.193 56.1564 54.565 57.1361 55.2704 57.8416L55.9776 57.1344ZM55.0987 54.8924L53.9467 38.7644L52.9493 38.8356L54.1013 54.9636L55.0987 54.8924ZM52.3127 17.0523L50.3927 16.9883L50.3593 17.9877L52.2793 18.0517L52.3127 17.0523ZM50.3135 16.9919C47.6147 17.3321 44.9443 18.9675 42.2994 21.7858C39.6521 24.6068 36.9924 28.6523 34.3146 33.9008L35.2054 34.3552C37.8609 29.1504 40.4706 25.1959 43.0286 22.4702C45.589 19.7419 48.06 18.2839 50.4385 17.9841L50.3135 16.9919ZM34.7506 34.6279C39.2717 34.7132 42.1356 34.756 43.336 34.756V33.756C42.1471 33.756 39.2937 33.7135 34.7694 33.6281L34.7506 34.6279ZM43.336 34.756C44.5833 34.756 47.8568 34.6703 53.1441 34.4997L53.1119 33.5003C47.8178 33.671 44.5634 33.756 43.336 33.756V34.756ZM53.6266 33.9623C53.0721 26.6262 52.796 21.159 52.796 17.552H51.796C51.796 21.1983 52.0746 26.6965 52.6294 34.0377L53.6266 33.9623Z" fill="black"/>
</g>
<defs>
<filter id="filter0_d_0_1" x="0" y="0" width="86" height="86" filterUnits="userSpaceOnUse" color-interpolation-filters="sRGB">
<feFlood flood-opacity="0" result="BackgroundImageFix"/>
<feColorMatrix in="SourceAlpha" type="matrix" values="0 0 0 0 0 0 0 0 0 0 0 0 0 0 0 0 0 0 127 0" result="hardAlpha"/>
<feOffset dy="4"/>
<feGaussianBlur stdDeviation="2"/>
<feComposite in2="hardAlpha" operator="out"/>
<feColorMatrix type="matrix" values="0 0 0 0 0 0 0 0 0 0 0 0 0 0 0 0 0 0 0.25 0"/>
<feBlend mode="normal" in2="BackgroundImageFix" result="effect1_dropShadow_0_1"/>
<feBlend mode="normal" in="SourceGraphic" in2="effect1_dropShadow_0_1" result="shape"/>
</filter>
<filter id="filter1_d_0_1" x="6" y="6" width="73" height="73" filterUnits="userSpaceOnUse" color-interpolation-filters="sRGB">
<feFlood flood-opacity="0" result="BackgroundImageFix"/>
<feColorMatrix in="SourceAlpha" type="matrix" values="0 0 0 0 0 0 0 0 0 0 0 0 0 0 0 0 0 0 127 0" result="hardAlpha"/>
<feOffset dy="4"/>
<feGaussianBlur stdDeviation="2"/>
<feComposite in2="hardAlpha" operator="out"/>
<feColorMatrix type="matrix" values="0 0 0 0 0 0 0 0 0 0 0 0 0 0 0 0 0 0 0.25 0"/>
<feBlend mode="normal" in2="BackgroundImageFix" result="effect1_dropShadow_0_1"/>
<feBlend mode="normal" in="SourceGraphic" in2="effect1_dropShadow_0_1" result="shape"/>
</filter>
<filter id="filter2_d_0_1" x="2.856" y="13.456" width="62.4" height="71.104" filterUnits="userSpaceOnUse" color-interpolation-filters="sRGB">
<feFlood flood-opacity="0" result="BackgroundImageFix"/>
<feColorMatrix in="SourceAlpha" type="matrix" values="0 0 0 0 0 0 0 0 0 0 0 0 0 0 0 0 0 0 127 0" result="hardAlpha"/>
<feOffset dy="4"/>
<feGaussianBlur stdDeviation="2"/>
<feComposite in2="hardAlpha" operator="out"/>
<feColorMatrix type="matrix" values="0 0 0 0 0 0 0 0 0 0 0 0 0 0 0 0 0 0 0.25 0"/>
<feBlend mode="normal" in2="BackgroundImageFix" result="effect1_dropShadow_0_1"/>
<feBlend mode="normal" in="SourceGraphic" in2="effect1_dropShadow_0_1" result="shape"/>
</filter>
</defs>
</svg>
