<svg width="80" height="24" viewBox="0 0 80 24" fill="none" xmlns="http://www.w3.org/2000/svg">
<g filter="url(#filter0_d_0_1)">
<path d="M9.8 3.54C8.74667 4.86 7.98667 6.18 7.52 7.5H7.54C9.39333 7.5 10.4533 7.50667 10.72 7.52C11 7.52 11.1533 7.50667 11.18 7.48C11.2067 7.45333 11.2267 7.42 11.24 7.38C11.0133 5.74 10.8333 4.62667 10.7 4.04C10.5667 3.44 10.4333 3.14 10.3 3.14C10.1667 3.14 10 3.27333 9.8 3.54ZM8.02 12.96L8.46 12.88C8.59333 12.88 8.66 12.9533 8.66 13.1C8.66 13.5667 8.56667 13.96 8.38 14.28C8.19333 14.6 7.96 14.8267 7.68 14.96C7.22667 15.1867 6.84 15.3 6.52 15.3C5.90667 15.3 5.44667 15.0733 5.14 14.62C4.83333 14.1533 4.68 13.46 4.68 12.54C4.68 11.6067 4.93333 10.4 5.44 8.92H4.28C4.13333 8.92 4.06 8.84667 4.06 8.7C4.06 8.55333 4.17333 8.32 4.4 8C4.62667 7.66667 4.86667 7.5 5.12 7.5H6.02C6.96667 5.39333 8.08 3.57333 9.36 2.04C9.69333 1.64 10.1 1.26667 10.58 0.919999C11.0733 0.573333 11.4533 0.4 11.72 0.4C11.9867 0.4 12.1867 0.52 12.32 0.76C12.6667 1.32 13.0733 3.36667 13.54 6.9C13.7 8.42 13.9733 9.99333 14.36 11.62C14.76 13.2333 15.1267 14.1733 15.46 14.44C15.54 14.4933 15.58 14.56 15.58 14.64C15.58 14.84 15.2933 15.0267 14.72 15.2C14.16 15.3733 13.7267 15.46 13.42 15.46C13.1267 15.46 12.9 15.42 12.74 15.34C12.58 15.2733 12.48 15.2 12.44 15.12C12.2 14.6 11.96 13.36 11.72 11.4L11.6 10.46C11.5467 9.83333 11.4933 9.36 11.44 9.04L11.3 8.94L7.12 8.92C6.96 9.6 6.88 10.1933 6.88 10.7C6.88 11.2067 6.89333 11.58 6.92 11.82C6.96 12.0467 7.07333 12.2933 7.26 12.56C7.44667 12.8267 7.7 12.96 8.02 12.96ZM17.0648 15.14C17.3048 13.7 17.4248 11.9733 17.4248 9.96C17.4248 7.94667 17.3648 6.64 17.2448 6.04C17.2448 5.86667 17.4448 5.78 17.8448 5.78C18.4582 5.78 18.8648 6.01333 19.0648 6.48C19.0782 6.52 19.1115 6.54 19.1648 6.54C19.2182 6.54 19.2582 6.52667 19.2848 6.5C19.6982 6.07333 20.3382 5.86 21.2048 5.86C22.0715 5.86 22.7582 6.08 23.2648 6.52C23.7715 6.96 24.0248 7.6 24.0248 8.44C24.0248 8.94667 23.9782 9.66667 23.8848 10.6C23.8048 11.5333 23.7648 12.2267 23.7648 12.68C23.7648 13.76 23.9448 14.54 24.3048 15.02C24.3582 15.0867 24.3848 15.1533 24.3848 15.22C24.3848 15.3933 24.1982 15.48 23.8248 15.48C22.1715 15.48 21.3448 14.7467 21.3448 13.28C21.3448 12.72 21.4715 11.94 21.7248 10.94C21.9782 9.94 22.1048 9.18 22.1048 8.66C22.1048 7.59333 21.6648 7.06 20.7848 7.06C20.3582 7.06 20.0315 7.18667 19.8048 7.44C19.5915 7.69333 19.4715 7.98667 19.4448 8.32C19.4182 8.64 19.4048 9.25333 19.4048 10.16C19.4048 11.5467 19.4515 12.7533 19.5448 13.78L19.5848 14.22C19.5848 14.5933 19.3382 14.88 18.8448 15.08C18.3648 15.2933 17.9448 15.4 17.5848 15.4C17.2382 15.4 17.0648 15.3133 17.0648 15.14ZM25.7531 7.2L25.8131 6.4C25.8265 6.28 25.9198 6.22 26.0931 6.22H26.7931L26.7131 4.62V4.54C26.7131 4.23333 26.9465 3.94 27.4131 3.66C27.8798 3.38 28.3065 3.24 28.6931 3.24C28.8131 3.24 28.8731 3.29333 28.8731 3.4V3.42C28.8198 3.78 28.7665 4.70667 28.7131 6.2C29.2998 6.2 29.6731 6.18667 29.8331 6.16C29.9931 6.13333 30.0798 6.12 30.0931 6.12C30.1865 6.12 30.2331 6.2 30.2331 6.36C30.2331 6.52 30.1598 6.72667 30.0131 6.98C29.8665 7.22 29.7065 7.34667 29.5331 7.36H28.6931C28.6798 7.81333 28.6731 8.58 28.6731 9.66C28.6731 10.7267 28.6798 11.6067 28.6931 12.3C28.7198 12.9933 28.7465 13.52 28.7731 13.88C28.7998 14.2267 28.8265 14.5067 28.8531 14.72C28.8931 14.9333 28.9198 15.0867 28.9331 15.18C28.9598 15.2733 28.9731 15.3333 28.9731 15.36C28.9731 15.4933 28.8865 15.5667 28.7131 15.58C28.1931 15.58 27.6731 15.5067 27.1531 15.36C26.6465 15.2133 26.3931 14.96 26.3931 14.6C26.6731 12.36 26.8131 9.95333 26.8131 7.38C26.4531 7.38 26.1798 7.39333 25.9931 7.42H25.9731C25.8531 7.42 25.7798 7.34667 25.7531 7.2ZM38.2058 9L38.1658 11.56C38.1658 13.3333 38.3591 14.4 38.7458 14.76C38.7991 14.8133 38.8258 14.8733 38.8258 14.94C38.8258 15.14 38.3924 15.24 37.5258 15.24C36.6724 15.24 36.2191 14.9867 36.1658 14.48C36.1524 14.36 36.1458 14.1133 36.1458 13.74L36.2258 10.54C36.2258 10.4467 36.1724 10.4 36.0658 10.4C35.4258 10.4 34.8258 10.58 34.2658 10.94C33.7058 11.3 33.4258 11.76 33.4258 12.32C33.4258 12.6133 33.5058 12.86 33.6658 13.06C33.8258 13.26 34.0191 13.36 34.2458 13.36C34.4858 13.36 34.6791 13.3133 34.8258 13.22C34.9858 13.1267 35.0791 13.0733 35.1058 13.06C35.3324 13.0867 35.4458 13.3267 35.4458 13.78C35.4458 14.22 35.2391 14.58 34.8258 14.86C34.4124 15.1267 33.9791 15.26 33.5258 15.26C33.0724 15.26 32.6791 15.18 32.3458 15.02C32.0258 14.86 31.7924 14.68 31.6458 14.48C31.4991 14.28 31.3791 14.0533 31.2858 13.8C31.1924 13.4933 31.1458 13.2267 31.1458 13C31.1458 12.0667 31.4391 11.32 32.0258 10.76C32.6124 10.2 33.3658 9.8 34.2858 9.56C35.4991 9.32 36.1324 9.1 36.1858 8.9C36.2258 8.75333 36.2458 8.50667 36.2458 8.16C36.2458 7.45333 35.8858 7.1 35.1658 7.1C34.8591 7.1 34.5858 7.2 34.3458 7.4C34.1058 7.58667 33.9858 7.82667 33.9858 8.12L34.1058 8.6C34.0791 8.82667 33.8391 8.96 33.3858 9L33.1658 9.02C32.7658 9.02 32.4458 8.92 32.2058 8.72C31.9791 8.52 31.8658 8.25333 31.8658 7.92C31.8658 7.70667 31.9324 7.47333 32.0658 7.22C32.2124 6.95333 32.3924 6.74 32.6058 6.58C32.8191 6.42 33.1458 6.28 33.5858 6.16C34.0391 6.02667 34.4724 5.96 34.8858 5.96C35.2991 5.96 35.6191 5.97333 35.8458 6C36.0724 6.02667 36.3791 6.09333 36.7658 6.2C37.1658 6.29333 37.4924 6.48 37.7458 6.76C38.0124 7.04 38.1524 7.34 38.1658 7.66C38.1924 7.96667 38.2058 8.41333 38.2058 9ZM46.5164 9.64L46.5964 10.34C46.5964 10.5933 46.3564 10.72 45.8764 10.72C44.9031 10.72 44.4164 10.3533 44.4164 9.62C44.4164 9.44667 44.4631 9.20667 44.5564 8.9C44.6497 8.59333 44.6964 8.32667 44.6964 8.1C44.6964 7.87333 44.6297 7.68 44.4964 7.52C44.3631 7.34667 44.1697 7.26 43.9164 7.26C43.6631 7.26 43.4431 7.35333 43.2564 7.54C43.0831 7.71333 42.9764 7.89333 42.9364 8.08L42.8564 8.36C42.7764 8.77333 42.7364 9.46667 42.7364 10.44C42.7364 11.4 42.7497 12.16 42.7764 12.72C42.8031 13.2667 42.8297 13.6467 42.8564 13.86C42.8831 14.06 42.8964 14.18 42.8964 14.22C42.8964 14.5533 42.6897 14.82 42.2764 15.02C41.8631 15.2333 41.4497 15.34 41.0364 15.34C40.6231 15.34 40.4164 15.2533 40.4164 15.08L40.5164 14.46C40.7031 13.3 40.7964 11.7867 40.7964 9.92C40.7964 8.05333 40.7297 6.78667 40.5964 6.12C40.5964 5.96 40.7364 5.88 41.0164 5.88C41.7364 5.88 42.2164 6.12667 42.4564 6.62C42.4697 6.67333 42.4897 6.7 42.5164 6.7C42.5564 6.7 42.6497 6.64 42.7964 6.52C43.2364 6.16 43.7564 5.98 44.3564 5.98C44.7297 5.98 45.1031 6.05333 45.4764 6.2C46.2364 6.50667 46.6164 7.14667 46.6164 8.12L46.5164 9.64ZM48.2258 7.2L48.2858 6.4C48.2991 6.28 48.3924 6.22 48.5658 6.22H49.2658L49.1858 4.62V4.54C49.1858 4.23333 49.4191 3.94 49.8858 3.66C50.3524 3.38 50.7791 3.24 51.1658 3.24C51.2858 3.24 51.3458 3.29333 51.3458 3.4V3.42C51.2924 3.78 51.2391 4.70667 51.1858 6.2C51.7724 6.2 52.1458 6.18667 52.3058 6.16C52.4658 6.13333 52.5524 6.12 52.5658 6.12C52.6591 6.12 52.7058 6.2 52.7058 6.36C52.7058 6.52 52.6324 6.72667 52.4858 6.98C52.3391 7.22 52.1791 7.34667 52.0058 7.36H51.1658C51.1524 7.81333 51.1458 8.58 51.1458 9.66C51.1458 10.7267 51.1524 11.6067 51.1658 12.3C51.1924 12.9933 51.2191 13.52 51.2458 13.88C51.2724 14.2267 51.2991 14.5067 51.3258 14.72C51.3658 14.9333 51.3924 15.0867 51.4058 15.18C51.4324 15.2733 51.4458 15.3333 51.4458 15.36C51.4458 15.4933 51.3591 15.5667 51.1858 15.58C50.6658 15.58 50.1458 15.5067 49.6258 15.36C49.1191 15.2133 48.8658 14.96 48.8658 14.6C49.1458 12.36 49.2858 9.95333 49.2858 7.38C48.9258 7.38 48.6524 7.39333 48.4658 7.42H48.4458C48.3258 7.42 48.2524 7.34667 48.2258 7.2ZM56.0584 4.3L55.5784 4.28C55.2184 4.28 54.9851 4.36667 54.8784 4.54C54.8518 4.58 54.8184 4.6 54.7784 4.6C54.6051 4.6 54.5184 4.30667 54.5184 3.72C54.5184 3.12 54.6051 2.74 54.7784 2.58C54.9651 2.42 55.2784 2.34 55.7184 2.34C56.1718 2.34 56.4784 2.42 56.6384 2.58C56.7984 2.72667 56.8784 2.98 56.8784 3.34C56.8784 3.7 56.8184 3.95333 56.6984 4.1C56.5784 4.23333 56.3651 4.3 56.0584 4.3ZM54.4584 14.4L54.6784 9.74C54.6784 8.63333 54.5518 7.88 54.2984 7.48C54.2184 7.34667 54.1251 7.24667 54.0184 7.18C53.9384 7.15333 53.8984 7.1 53.8984 7.02C53.8984 6.78 54.2384 6.54667 54.9184 6.32C55.5984 6.09333 56.0918 5.98 56.3984 5.98C56.7184 5.98 56.8851 6.06 56.8984 6.22C56.8984 6.48667 56.8584 7.24667 56.7784 8.5C56.7118 9.74 56.6784 11.0467 56.6784 12.42C56.6784 13.7933 56.7584 14.6467 56.9184 14.98C56.9584 15.0467 56.9784 15.1133 56.9784 15.18C56.9784 15.3533 56.7251 15.44 56.2184 15.44C55.7118 15.44 55.1918 15.3067 54.6584 15.04C54.5251 14.9733 54.4584 14.76 54.4584 14.4ZM65.7377 12.7C65.7377 13.46 65.431 14.0933 64.8177 14.6C64.2177 15.0933 63.4977 15.34 62.6577 15.34C61.431 15.34 60.531 14.9733 59.9577 14.24C59.3843 13.4933 59.0977 12.4867 59.0977 11.22C59.0977 9.87333 59.3977 8.68 59.9977 7.64C60.291 7.10667 60.711 6.68667 61.2577 6.38C61.8043 6.07333 62.4443 5.92 63.1777 5.92C64.2843 5.92 65.0643 6.29333 65.5177 7.04C65.7043 7.34667 65.7977 7.70667 65.7977 8.12C65.7977 8.76 65.531 9.24 64.9977 9.56C64.7843 9.68 64.5843 9.74 64.3977 9.74C64.2243 9.74 64.0777 9.73333 63.9577 9.72C63.851 9.69333 63.7043 9.6 63.5177 9.44C63.331 9.28 63.2377 9.06 63.2377 8.78C63.251 8.63333 63.3643 8.51333 63.5777 8.42C63.7777 8.3 63.8777 8.08667 63.8777 7.78C63.8777 7.26 63.5577 7 62.9177 7C62.7577 7 62.5643 7.07333 62.3377 7.22C62.1243 7.35333 61.9443 7.53333 61.7977 7.76C61.651 7.97333 61.511 8.32 61.3777 8.8C61.2577 9.26667 61.1977 9.72 61.1977 10.16C61.1977 10.5867 61.211 10.9133 61.2377 11.14C61.2777 11.3533 61.351 11.6533 61.4577 12.04C61.5777 12.4133 61.791 12.72 62.0977 12.96C62.4177 13.2 62.811 13.32 63.2777 13.32C63.8377 13.32 64.331 13.0867 64.7577 12.62C64.931 12.4333 65.071 12.2067 65.1777 11.94C65.231 11.8333 65.2977 11.78 65.3777 11.78C65.4977 11.78 65.5843 11.8933 65.6377 12.12C65.7043 12.3333 65.7377 12.5267 65.7377 12.7ZM74.4753 9L74.4353 11.56C74.4353 13.3333 74.6286 14.4 75.0153 14.76C75.0686 14.8133 75.0953 14.8733 75.0953 14.94C75.0953 15.14 74.662 15.24 73.7953 15.24C72.942 15.24 72.4886 14.9867 72.4353 14.48C72.422 14.36 72.4153 14.1133 72.4153 13.74L72.4953 10.54C72.4953 10.4467 72.442 10.4 72.3353 10.4C71.6953 10.4 71.0953 10.58 70.5353 10.94C69.9753 11.3 69.6953 11.76 69.6953 12.32C69.6953 12.6133 69.7753 12.86 69.9353 13.06C70.0953 13.26 70.2886 13.36 70.5153 13.36C70.7553 13.36 70.9486 13.3133 71.0953 13.22C71.2553 13.1267 71.3486 13.0733 71.3753 13.06C71.602 13.0867 71.7153 13.3267 71.7153 13.78C71.7153 14.22 71.5086 14.58 71.0953 14.86C70.682 15.1267 70.2486 15.26 69.7953 15.26C69.342 15.26 68.9486 15.18 68.6153 15.02C68.2953 14.86 68.062 14.68 67.9153 14.48C67.7686 14.28 67.6486 14.0533 67.5553 13.8C67.462 13.4933 67.4153 13.2267 67.4153 13C67.4153 12.0667 67.7086 11.32 68.2953 10.76C68.882 10.2 69.6353 9.8 70.5553 9.56C71.7686 9.32 72.402 9.1 72.4553 8.9C72.4953 8.75333 72.5153 8.50667 72.5153 8.16C72.5153 7.45333 72.1553 7.1 71.4353 7.1C71.1286 7.1 70.8553 7.2 70.6153 7.4C70.3753 7.58667 70.2553 7.82667 70.2553 8.12L70.3753 8.6C70.3486 8.82667 70.1086 8.96 69.6553 9L69.4353 9.02C69.0353 9.02 68.7153 8.92 68.4753 8.72C68.2486 8.52 68.1353 8.25333 68.1353 7.92C68.1353 7.70667 68.202 7.47333 68.3353 7.22C68.482 6.95333 68.662 6.74 68.8753 6.58C69.0886 6.42 69.4153 6.28 69.8553 6.16C70.3086 6.02667 70.742 5.96 71.1553 5.96C71.5686 5.96 71.8886 5.97333 72.1153 6C72.342 6.02667 72.6486 6.09333 73.0353 6.2C73.4353 6.29333 73.762 6.48 74.0153 6.76C74.282 7.04 74.422 7.34 74.4353 7.66C74.462 7.96667 74.4753 8.41333 74.4753 9Z" fill="white"/>
<path d="M9.8 3.54L10.1908 3.85187L10.1955 3.846L10.2 3.84L9.8 3.54ZM7.52 7.5L7.04859 7.33334L6.81291 8H7.52V7.5ZM10.72 7.52L10.695 8.01938L10.7075 8.02H10.72V7.52ZM11.24 7.38L11.7143 7.53811L11.7513 7.42728L11.7353 7.31154L11.24 7.38ZM10.7 4.04L10.2119 4.14847L10.2124 4.15081L10.7 4.04ZM8.02 12.96V13.46H8.06509L8.10944 13.4519L8.02 12.96ZM8.46 12.88V12.38H8.41492L8.37056 12.3881L8.46 12.88ZM8.38 14.28L7.94811 14.0281L7.94811 14.0281L8.38 14.28ZM7.68 14.96L7.46499 14.5085L7.45639 14.5128L7.68 14.96ZM5.14 14.62L4.72211 14.8946L4.72586 14.9002L5.14 14.62ZM5.44 8.92L5.91305 9.08194L6.13966 8.42H5.44V8.92ZM4.4 8L4.80809 8.28906L4.81346 8.28115L4.4 8ZM6.02 7.5V8H6.34348L6.47607 7.70494L6.02 7.5ZM9.36 2.04L9.74384 2.36042L9.74411 2.36009L9.36 2.04ZM10.58 0.919999L10.2925 0.510869L10.2873 0.514659L10.58 0.919999ZM12.32 0.76L11.8829 1.00282L11.8887 1.01314L11.8949 1.02318L12.32 0.76ZM13.54 6.9L14.0374 6.84764L14.0357 6.83453L13.54 6.9ZM14.36 11.62L13.8735 11.7356L13.8747 11.7403L14.36 11.62ZM15.46 14.44L15.1477 14.8304L15.1646 14.844L15.1827 14.856L15.46 14.44ZM14.72 15.2L14.5753 14.7214L14.5722 14.7224L14.72 15.2ZM12.74 15.34L12.9636 14.8928L12.9482 14.8851L12.9323 14.8785L12.74 15.34ZM12.44 15.12L11.986 15.3295L11.9893 15.3366L11.9928 15.3436L12.44 15.12ZM11.72 11.4L12.2163 11.3392L12.216 11.3367L11.72 11.4ZM11.6 10.46L11.1018 10.5024L11.1027 10.5129L11.104 10.5233L11.6 10.46ZM11.44 9.04L11.9332 8.9578L11.8991 8.75351L11.7306 8.63313L11.44 9.04ZM11.3 8.94L11.5906 8.53313L11.4613 8.44077L11.3024 8.44001L11.3 8.94ZM7.12 8.92L7.12239 8.42001L6.72444 8.4181L6.63329 8.80548L7.12 8.92ZM6.92 11.82L6.42306 11.8752L6.42483 11.8911L6.42761 11.9069L6.92 11.82ZM7.26 12.56L7.66962 12.2733L7.66962 12.2733L7.26 12.56ZM9.40918 3.22813C8.32803 4.583 7.53722 5.95122 7.04859 7.33334L7.99141 7.66666C8.43611 6.40878 9.16531 5.137 10.1908 3.85187L9.40918 3.22813ZM7.52 8H7.54V7H7.52V8ZM7.54 8C9.40213 8 10.4445 8.00685 10.695 8.01938L10.745 7.02062C10.4622 7.00648 9.38454 7 7.54 7V8ZM10.72 8.02C10.8648 8.02 10.9901 8.01666 11.0883 8.00812C11.1362 8.00396 11.1913 7.99746 11.2447 7.98559C11.2713 7.97968 11.3088 7.97001 11.3498 7.95361C11.3835 7.94011 11.4608 7.90633 11.5336 7.83355L10.8264 7.12645C10.8623 7.09064 10.8967 7.0676 10.92 7.05388C10.944 7.03975 10.9646 7.03064 10.9784 7.02514C11.0048 7.01458 11.0237 7.01032 11.0278 7.00941C11.0362 7.00753 11.0305 7.00937 11.0017 7.01188C10.9466 7.01667 10.8552 7.02 10.72 7.02V8.02ZM11.5336 7.83355C11.6213 7.7458 11.6794 7.64297 11.7143 7.53811L10.7657 7.22189C10.7739 7.19703 10.792 7.16086 10.8264 7.12645L11.5336 7.83355ZM11.7353 7.31154C11.5089 5.67372 11.3264 4.53989 11.1876 3.92919L10.2124 4.15081C10.3403 4.71344 10.5177 5.80628 10.7447 7.44845L11.7353 7.31154ZM11.1881 3.93153C11.1193 3.62193 11.0441 3.35813 10.9569 3.16193C10.9142 3.06575 10.856 2.95668 10.7737 2.86407C10.6937 2.77404 10.5354 2.64 10.3 2.64V3.64C10.1312 3.64 10.0397 3.54346 10.0263 3.52843C10.0106 3.51082 10.0192 3.51425 10.0431 3.56807C10.0892 3.67187 10.1474 3.85807 10.2119 4.14846L11.1881 3.93153ZM10.3 2.64C10.0693 2.64 9.88495 2.75173 9.76265 2.84956C9.6334 2.95296 9.51284 3.08955 9.4 3.24L10.2 3.84C10.2872 3.72378 10.3499 3.66037 10.3873 3.63043C10.405 3.61631 10.4081 3.61689 10.3968 3.6219C10.3848 3.62725 10.3508 3.64 10.3 3.64V2.64ZM8.10944 13.4519L8.54944 13.3719L8.37056 12.3881L7.93056 12.4681L8.10944 13.4519ZM8.46 13.38C8.43666 13.38 8.33099 13.3714 8.24003 13.2713C8.19938 13.2266 8.17876 13.181 8.16899 13.1488C8.16425 13.1331 8.16207 13.1207 8.16104 13.1128C8.16001 13.1049 8.16 13.1004 8.16 13.1H9.16C9.16 12.9608 9.12938 12.763 8.97997 12.5987C8.82235 12.4253 8.61667 12.38 8.46 12.38V13.38ZM8.16 13.1C8.16 13.5008 8.07999 13.802 7.94811 14.0281L8.81189 14.5319C9.05335 14.118 9.16 13.6325 9.16 13.1H8.16ZM7.94811 14.0281C7.80203 14.2785 7.63787 14.4263 7.46503 14.5086L7.89497 15.4114C8.28213 15.2271 8.58463 14.9215 8.81189 14.5319L7.94811 14.0281ZM7.45639 14.5128C7.03617 14.7229 6.73001 14.8 6.52 14.8V15.8C6.94999 15.8 7.41717 15.6504 7.90361 15.4072L7.45639 14.5128ZM6.52 14.8C6.04922 14.8 5.75541 14.6374 5.55414 14.3398L4.72586 14.9002C5.13793 15.5093 5.76411 15.8 6.52 15.8V14.8ZM5.55785 14.3454C5.32926 13.9976 5.18 13.4194 5.18 12.54H4.18C4.18 13.5006 4.33741 14.3091 4.72215 14.8946L5.55785 14.3454ZM5.18 12.54C5.18 11.6866 5.41387 10.5401 5.91305 9.08194L4.96695 8.75806C4.4528 10.2599 4.18 11.5268 4.18 12.54H5.18ZM5.44 8.42H4.28V9.42H5.44V8.42ZM4.28 8.42C4.28374 8.42 4.37838 8.42127 4.46855 8.51145C4.55873 8.60162 4.56 8.69626 4.56 8.7H3.56C3.56 8.85041 3.59794 9.05505 3.76145 9.21855C3.92495 9.38206 4.12959 9.42 4.28 9.42V8.42ZM4.56 8.7C4.56 8.7399 4.54947 8.72669 4.59475 8.63345C4.63506 8.55046 4.70336 8.43675 4.80801 8.28901L3.99199 7.71099C3.86997 7.88325 3.76827 8.0462 3.69525 8.19655C3.6272 8.33664 3.56 8.51344 3.56 8.7H4.56ZM4.81346 8.28115C5.00367 8.00144 5.11237 8 5.12 8V7C4.62096 7 4.24966 7.33189 3.98654 7.71884L4.81346 8.28115ZM5.12 8H6.02V7H5.12V8ZM6.47607 7.70494C7.40689 5.63354 8.49721 3.85377 9.74384 2.36042L8.97616 1.71958C7.66279 3.29289 6.52645 5.15312 5.56393 7.29506L6.47607 7.70494ZM9.74411 2.36009C10.0473 1.99625 10.4221 1.6508 10.8727 1.32534L10.2873 0.514659C9.7779 0.882528 9.33936 1.28374 8.97589 1.71991L9.74411 2.36009ZM10.8675 1.32909C11.099 1.16641 11.2898 1.05455 11.4425 0.984909C11.6004 0.912901 11.6873 0.9 11.72 0.9V-0.1C11.486 -0.1 11.2496 -0.0262354 11.0275 0.0750898C10.8002 0.178777 10.5543 0.326923 10.2925 0.510903L10.8675 1.32909ZM11.72 0.9C11.776 0.9 11.8011 0.911741 11.8128 0.918746C11.8252 0.926198 11.8513 0.945822 11.8829 1.00282L12.7571 0.517179C12.6554 0.334177 12.5148 0.173801 12.3272 0.0612532C12.1389 -0.0517421 11.9307 -0.1 11.72 -0.1V0.9ZM11.8949 1.02318C11.9436 1.10195 12.019 1.27948 12.1109 1.59757C12.1996 1.90458 12.2944 2.30816 12.3946 2.81244C12.5949 3.82036 12.8115 5.20318 13.0443 6.96547L14.0357 6.83453C13.8018 5.06349 13.5818 3.65631 13.3754 2.61756C13.2723 2.0985 13.1712 1.66458 13.0716 1.31993C12.9752 0.986357 12.8697 0.698047 12.7451 0.496822L11.8949 1.02318ZM13.0427 6.95234C13.2052 8.49552 13.4824 10.09 13.8736 11.7356L14.8464 11.5044C14.4643 9.89663 14.1948 8.34448 14.0373 6.84766L13.0427 6.95234ZM13.8747 11.7403C14.077 12.5564 14.2747 13.2181 14.4692 13.7167C14.5664 13.966 14.6666 14.1842 14.7713 14.3646C14.8726 14.5394 14.995 14.7083 15.1477 14.8304L15.7723 14.0496C15.7583 14.0384 15.7099 13.9897 15.6362 13.8629C15.5659 13.7416 15.4869 13.574 15.4008 13.3533C15.2287 12.9119 15.043 12.297 14.8453 11.4997L13.8747 11.7403ZM15.1827 14.856C15.1753 14.8511 15.1473 14.8306 15.1213 14.7872C15.0932 14.7405 15.08 14.6879 15.08 14.64H16.08C16.08 14.3575 15.9242 14.1485 15.7373 14.024L15.1827 14.856ZM15.08 14.64C15.08 14.4781 15.1949 14.4441 15.0922 14.511C15.0075 14.5661 14.8452 14.6398 14.5753 14.7214L14.8647 15.6786C15.1682 15.5869 15.4359 15.4805 15.6378 15.349C15.8218 15.2292 16.08 15.0019 16.08 14.64H15.08ZM14.5722 14.7224C14.0248 14.8918 13.6496 14.96 13.42 14.96V15.96C13.8037 15.96 14.2952 15.8549 14.8678 15.6776L14.5722 14.7224ZM13.42 14.96C13.1604 14.96 13.0234 14.9227 12.9636 14.8928L12.5164 15.7872C12.7766 15.9173 13.0929 15.96 13.42 15.96V14.96ZM12.9323 14.8785C12.905 14.8671 12.884 14.857 12.8683 14.8485C12.8525 14.84 12.8439 14.8342 12.8407 14.8318C12.8374 14.8294 12.8419 14.8322 12.8505 14.8416C12.8592 14.8512 12.8736 14.8691 12.8872 14.8964L11.9928 15.3436C12.118 15.594 12.3667 15.7261 12.5477 15.8015L12.9323 14.8785ZM12.894 14.9105C12.8013 14.7096 12.6901 14.3211 12.5709 13.705C12.4539 13.1008 12.3356 12.3134 12.2163 11.3392L11.2237 11.4608C11.3444 12.4466 11.4661 13.2592 11.5891 13.895C11.7099 14.5189 11.8387 15.0104 11.986 15.3295L12.894 14.9105ZM12.216 11.3367L12.096 10.3967L11.104 10.5233L11.224 11.4633L12.216 11.3367ZM12.0982 10.4176C12.0446 9.78749 11.9899 9.29809 11.9332 8.9578L10.9468 9.1222C10.9968 9.42191 11.0488 9.87918 11.1018 10.5024L12.0982 10.4176ZM11.7306 8.63313L11.5906 8.53313L11.0094 9.34687L11.1494 9.44687L11.7306 8.63313ZM11.3024 8.44001L7.12239 8.42001L7.11761 9.41999L11.2976 9.43999L11.3024 8.44001ZM6.63329 8.80548C6.46753 9.50998 6.38 10.1434 6.38 10.7H7.38C7.38 10.2433 7.45247 9.69002 7.60671 9.03452L6.63329 8.80548ZM6.38 10.7C6.38 11.2097 6.39316 11.6062 6.42306 11.8752L7.41694 11.7648C7.3935 11.5538 7.38 11.2036 7.38 10.7H6.38ZM6.42761 11.9069C6.48441 12.2288 6.63802 12.5434 6.85038 12.8467L7.66962 12.2733C7.50864 12.0433 7.43559 11.8646 7.41239 11.7331L6.42761 11.9069ZM6.85038 12.8467C7.12869 13.2443 7.53352 13.46 8.02 13.46V12.46C7.86648 12.46 7.76464 12.409 7.66962 12.2733L6.85038 12.8467ZM17.0648 15.14L16.5716 15.0578L16.5648 15.0986V15.14H17.0648ZM17.2448 6.04H16.7448V6.08951L16.7546 6.13806L17.2448 6.04ZM19.0648 6.48L19.5392 6.32189L19.5326 6.30216L19.5244 6.28304L19.0648 6.48ZM19.2848 6.5L19.6384 6.8536L19.644 6.8479L19.2848 6.5ZM23.2648 6.52L22.937 6.89752L22.937 6.89752L23.2648 6.52ZM23.8848 10.6L23.3873 10.5502L23.3867 10.5573L23.8848 10.6ZM24.3048 15.02L23.9048 15.32L23.9095 15.3262L23.9144 15.3323L24.3048 15.02ZM21.7248 10.94L22.2095 11.0628L22.2095 11.0628L21.7248 10.94ZM19.8048 7.44L19.4322 7.1066L19.4272 7.11219L19.4224 7.11793L19.8048 7.44ZM19.4448 8.32L19.9431 8.36152L19.9433 8.35987L19.4448 8.32ZM19.5448 13.78L20.0428 13.7347L20.0428 13.7347L19.5448 13.78ZM19.5848 14.22H20.0848V14.1973L20.0828 14.1747L19.5848 14.22ZM18.8448 15.08L18.657 14.6166L18.6493 14.6197L18.6418 14.6231L18.8448 15.08ZM17.558 15.2222C17.8039 13.747 17.9248 11.9913 17.9248 9.96H16.9248C16.9248 11.9553 16.8058 13.653 16.5716 15.0578L17.558 15.2222ZM17.9248 9.96C17.9248 7.95854 17.8667 6.59966 17.7351 5.94194L16.7546 6.13806C16.863 6.68034 16.9248 7.9348 16.9248 9.96H17.9248ZM17.7448 6.04C17.7448 6.10023 17.7249 6.17103 17.6787 6.2311C17.6377 6.28436 17.5968 6.30242 17.5936 6.30378C17.5906 6.30508 17.607 6.29788 17.6538 6.29111C17.6991 6.28458 17.7617 6.28 17.8448 6.28V5.28C17.6241 5.28 17.3913 5.30162 17.196 5.38622C17.0929 5.43091 16.977 5.50314 16.886 5.62139C16.7898 5.74647 16.7448 5.8931 16.7448 6.04H17.7448ZM17.8448 6.28C18.0904 6.28 18.2533 6.32686 18.361 6.38868C18.4623 6.44682 18.5442 6.53454 18.6053 6.67696L19.5244 6.28304C19.3855 5.9588 19.164 5.69651 18.8587 5.52132C18.5598 5.3498 18.2127 5.28 17.8448 5.28V6.28ZM18.5905 6.63811C18.6315 6.76101 18.7146 6.87696 18.8426 6.95375C18.9607 7.02461 19.0799 7.04 19.1648 7.04V6.04C19.1964 6.04 19.2723 6.04539 19.3571 6.09625C19.4517 6.15304 19.5116 6.23899 19.5392 6.32189L18.5905 6.63811ZM19.1648 7.04C19.2952 7.04 19.4849 7.00706 19.6384 6.85355L18.9313 6.14645C19.0315 6.04627 19.1411 6.04 19.1648 6.04V7.04ZM19.644 6.8479C19.9271 6.55561 20.4112 6.36 21.2048 6.36V5.36C20.2652 5.36 19.4692 5.59105 18.9257 6.1521L19.644 6.8479ZM21.2048 6.36C21.987 6.36 22.5452 6.55725 22.937 6.89752L23.5927 6.14248C22.9712 5.60275 22.156 5.36 21.2048 5.36V6.36ZM22.937 6.89752C23.3077 7.21945 23.5248 7.70544 23.5248 8.44H24.5248C24.5248 7.49456 24.2353 6.70055 23.5927 6.14248L22.937 6.89752ZM23.5248 8.44C23.5248 8.9216 23.4801 9.62208 23.3873 10.5502L24.3824 10.6498C24.4762 9.71125 24.5248 8.97174 24.5248 8.44H23.5248ZM23.3867 10.5573C23.3064 11.4932 23.2648 12.2042 23.2648 12.68H24.2648C24.2648 12.2491 24.3032 11.5734 24.383 10.6427L23.3867 10.5573ZM23.2648 12.68C23.2648 13.7921 23.4457 14.7077 23.9048 15.32L24.7048 14.72C24.444 14.3723 24.2648 13.7279 24.2648 12.68H23.2648ZM23.9144 15.3323C23.916 15.3343 23.9086 15.3256 23.9006 15.3057C23.8921 15.2846 23.8848 15.255 23.8848 15.22H24.8848C24.8848 15.0112 24.7993 14.8377 24.6953 14.7077L23.9144 15.3323ZM23.8848 15.22C23.8848 15.1679 23.9009 15.1018 23.9437 15.0421C23.9829 14.9875 24.0247 14.9659 24.0343 14.9615C24.0428 14.9575 24.0331 14.9635 23.9934 14.9696C23.9552 14.9755 23.9001 14.98 23.8248 14.98V15.98C24.0344 15.98 24.2623 15.9581 24.4554 15.8685C24.5583 15.8207 24.6701 15.745 24.756 15.6254C24.8455 15.5007 24.8848 15.3588 24.8848 15.22H23.8848ZM23.8248 14.98C23.0615 14.98 22.5824 14.8094 22.2967 14.556C22.0224 14.3126 21.8448 13.9197 21.8448 13.28H20.8448C20.8448 14.107 21.0807 14.814 21.633 15.304C22.174 15.7839 22.9349 15.98 23.8248 15.98V14.98ZM21.8448 13.28C21.8448 12.7825 21.9594 12.0503 22.2095 11.0628L21.2402 10.8172C20.9836 11.8297 20.8448 12.6575 20.8448 13.28H21.8448ZM22.2095 11.0628C22.4651 10.0538 22.6048 9.24446 22.6048 8.66H21.6048C21.6048 9.11554 21.4912 9.82619 21.2402 10.8172L22.2095 11.0628ZM22.6048 8.66C22.6048 8.07048 22.4852 7.53537 22.1605 7.14181C21.8206 6.72982 21.33 6.56 20.7848 6.56V7.56C21.1197 7.56 21.289 7.65684 21.3892 7.77819C21.5045 7.91796 21.6048 8.18285 21.6048 8.66H22.6048ZM20.7848 6.56C20.2549 6.56 19.777 6.72132 19.4322 7.1066L20.1775 7.7734C20.2861 7.65202 20.4614 7.56 20.7848 7.56V6.56ZM19.4224 7.11793C19.1413 7.45178 18.9813 7.84402 18.9464 8.28013L19.9433 8.35987C19.9617 8.12931 20.0418 7.93489 20.1873 7.76207L19.4224 7.11793ZM18.9466 8.27848C18.9179 8.62233 18.9048 9.25586 18.9048 10.16H19.9048C19.9048 9.2508 19.9184 8.65767 19.9431 8.36152L18.9466 8.27848ZM18.9048 10.16C18.9048 11.557 18.9518 12.7794 19.0469 13.8253L20.0428 13.7347C19.9512 12.7272 19.9048 11.5363 19.9048 10.16H18.9048ZM19.0469 13.8253L19.0869 14.2653L20.0828 14.1747L20.0428 13.7347L19.0469 13.8253ZM19.0848 14.22C19.0848 14.3036 19.0568 14.4546 18.657 14.6166L19.0327 15.5434C19.6196 15.3054 20.0848 14.8831 20.0848 14.22H19.0848ZM18.6418 14.6231C18.1987 14.82 17.8504 14.9 17.5848 14.9V15.9C18.0393 15.9 18.5309 15.7667 19.0479 15.5369L18.6418 14.6231ZM17.5848 14.9C17.5177 14.9 17.4704 14.8957 17.4395 14.8906C17.4073 14.8852 17.4044 14.8808 17.4185 14.8878C17.4344 14.8958 17.4765 14.921 17.5134 14.9764C17.5524 15.0349 17.5648 15.0958 17.5648 15.14H16.5648C16.5648 15.2708 16.599 15.4076 16.6813 15.5311C16.7616 15.6515 16.8686 15.7309 16.9712 15.7822C17.1624 15.8778 17.386 15.9 17.5848 15.9V14.9ZM25.7531 7.2L25.2545 7.1626L25.2497 7.22645L25.2612 7.28944L25.7531 7.2ZM25.8131 6.4L25.3162 6.34478L25.3152 6.35368L25.3145 6.3626L25.8131 6.4ZM26.7931 6.22V6.72H27.3187L27.2925 6.19503L26.7931 6.22ZM26.7131 4.62H26.2131V4.63249L26.2137 4.64497L26.7131 4.62ZM27.4131 3.66L27.1559 3.23125L27.1559 3.23125L27.4131 3.66ZM28.8731 3.42L29.3677 3.49327L29.3731 3.45683V3.42H28.8731ZM28.7131 6.2L28.2134 6.18215L28.1949 6.7H28.7131V6.2ZM30.0131 6.98L30.4399 7.2408L30.4458 7.23052L30.0131 6.98ZM29.5331 7.36V7.86H29.5523L29.5715 7.85853L29.5331 7.36ZM28.6931 7.36V6.86H28.2076L28.1933 7.3453L28.6931 7.36ZM28.6931 12.3L28.1931 12.3096L28.1935 12.3192L28.6931 12.3ZM28.7731 13.88L28.2745 13.9169L28.2746 13.9183L28.7731 13.88ZM28.8531 14.72L28.357 14.782L28.3589 14.7972L28.3617 14.8121L28.8531 14.72ZM28.9331 15.18L28.4382 15.2507L28.443 15.2845L28.4524 15.3174L28.9331 15.18ZM28.7131 15.58V16.08H28.7323L28.7515 16.0785L28.7131 15.58ZM27.1531 15.36L27.0141 15.8403L27.0174 15.8412L27.1531 15.36ZM26.3931 14.6L25.897 14.538L25.8931 14.5689V14.6H26.3931ZM26.8131 7.38H27.3131V6.88H26.8131V7.38ZM25.9931 7.42V7.92H26.0287L26.0638 7.91497L25.9931 7.42ZM26.2517 7.23739L26.3117 6.43739L25.3145 6.3626L25.2545 7.1626L26.2517 7.23739ZM26.3101 6.45522C26.3068 6.48495 26.2963 6.52887 26.2683 6.57615C26.2396 6.62459 26.2015 6.66115 26.1635 6.68559C26.0961 6.72895 26.0528 6.72 26.0931 6.72V5.72C25.9602 5.72 25.7835 5.74105 25.6227 5.84441C25.4372 5.96372 25.3378 6.15015 25.3162 6.34478L26.3101 6.45522ZM26.0931 6.72H26.7931V5.72H26.0931V6.72ZM27.2925 6.19503L27.2125 4.59503L26.2137 4.64497L26.2937 6.24497L27.2925 6.19503ZM27.2131 4.62V4.54H26.2131V4.62H27.2131ZM27.2131 4.54C27.2131 4.51199 27.2375 4.34846 27.6704 4.08875L27.1559 3.23125C26.6554 3.53154 26.2131 3.95468 26.2131 4.54H27.2131ZM27.6704 4.08875C28.0895 3.83729 28.4267 3.74 28.6931 3.74V2.74C28.1862 2.74 27.6701 2.92271 27.1559 3.23125L27.6704 4.08875ZM28.6931 3.74C28.6896 3.74 28.5936 3.7405 28.4959 3.65371C28.3871 3.55694 28.3731 3.43999 28.3731 3.4H29.3731C29.3731 3.25334 29.3292 3.05639 29.1603 2.90629C29.0027 2.76617 28.8166 2.74 28.6931 2.74V3.74ZM28.3731 3.4V3.42H29.3731V3.4H28.3731ZM28.3785 3.34672C28.3202 3.74067 28.2664 4.69976 28.2134 6.18215L29.2128 6.21785C29.2665 4.71358 29.3194 3.81933 29.3677 3.49327L28.3785 3.34672ZM28.7131 6.7C29.2871 6.7 29.706 6.68808 29.9153 6.6532L29.7509 5.6668C29.6403 5.68525 29.3125 5.7 28.7131 5.7V6.7ZM29.9153 6.6532C29.9947 6.63997 30.0539 6.63037 30.0942 6.62419C30.1145 6.62105 30.1278 6.61913 30.1355 6.61811C30.1394 6.61758 30.1395 6.61762 30.137 6.61788C30.1358 6.61801 30.132 6.61839 30.1267 6.61879C30.123 6.61907 30.1101 6.62 30.0931 6.62V5.62C30.0494 5.62 30.0047 5.6267 30.0033 5.62689C29.9859 5.6292 29.965 5.63228 29.9421 5.63581C29.8957 5.64296 29.8316 5.65336 29.7509 5.6668L29.9153 6.6532ZM30.0931 6.62C30.0433 6.62 29.9755 6.60869 29.9063 6.56912C29.8369 6.52945 29.7921 6.4763 29.7662 6.43193C29.7233 6.35828 29.7331 6.31224 29.7331 6.36H30.7331C30.7331 6.24776 30.7196 6.08172 30.63 5.92806C30.5162 5.73299 30.3159 5.62 30.0931 5.62V6.62ZM29.7331 6.36C29.7331 6.38577 29.7141 6.49852 29.5804 6.72948L30.4458 7.23052C30.6055 6.95481 30.7331 6.65423 30.7331 6.36H29.7331ZM29.5865 6.71927C29.5331 6.80667 29.4927 6.84717 29.4728 6.86298C29.4569 6.87551 29.4659 6.86369 29.4948 6.86147L29.5715 7.85853C29.9839 7.8268 30.2617 7.53217 30.4398 7.24072L29.5865 6.71927ZM29.5331 6.86H28.6931V7.86H29.5331V6.86ZM28.1933 7.3453C28.1798 7.80672 28.1731 8.57992 28.1731 9.66H29.1731C29.1731 8.58008 29.1798 7.81995 29.1929 7.3747L28.1933 7.3453ZM28.1731 9.66C28.1731 10.7284 28.1798 11.6119 28.1932 12.3096L29.193 12.2904C29.1798 11.6015 29.1731 10.725 29.1731 9.66H28.1731ZM28.1935 12.3192C28.2202 13.0141 28.2472 13.5479 28.2745 13.9169L29.2718 13.8431C29.2458 13.4921 29.2194 12.9725 29.1928 12.2808L28.1935 12.3192ZM28.2746 13.9183C28.3016 14.2688 28.3289 14.5575 28.357 14.782L29.3493 14.658C29.324 14.4558 29.298 14.1846 29.2717 13.8417L28.2746 13.9183ZM28.3617 14.8121C28.4016 15.0251 28.4265 15.1691 28.4382 15.2507L29.4281 15.1093C29.4131 15.0042 29.3846 14.8416 29.3446 14.6279L28.3617 14.8121ZM28.4524 15.3174C28.4643 15.3592 28.4714 15.387 28.475 15.4035C28.4768 15.4116 28.477 15.4132 28.4764 15.4098C28.4761 15.4079 28.4754 15.403 28.4748 15.3958C28.4741 15.3891 28.4731 15.3766 28.4731 15.36H29.4731C29.4731 15.2869 29.4583 15.2182 29.4512 15.1865C29.4415 15.143 29.4286 15.0941 29.4139 15.0426L28.4524 15.3174ZM28.4731 15.36C28.4731 15.3393 28.4765 15.3013 28.4958 15.2554C28.5159 15.2074 28.5474 15.1653 28.5852 15.1333C28.6545 15.0746 28.7089 15.0788 28.6748 15.0815L28.7515 16.0785C28.8907 16.0678 29.0751 16.0287 29.2311 15.8967C29.4067 15.7481 29.4731 15.5453 29.4731 15.36H28.4731ZM28.7131 15.08C28.2408 15.08 27.7664 15.0135 27.2889 14.8788L27.0174 15.8412C27.5798 15.9999 28.1455 16.08 28.7131 16.08V15.08ZM27.2922 14.8797C27.0843 14.8196 26.9821 14.7518 26.9367 14.7064C26.9043 14.6741 26.8931 14.6481 26.8931 14.6H25.8931C25.8931 14.9119 26.0086 15.1926 26.2296 15.4136C26.4375 15.6215 26.7153 15.7538 27.0141 15.8403L27.2922 14.8797ZM26.8893 14.662C27.1722 12.3988 27.3131 9.97126 27.3131 7.38H26.3131C26.3131 9.93541 26.1741 12.3212 25.897 14.538L26.8893 14.662ZM26.8131 6.88C26.4466 6.88 26.1449 6.89324 25.9224 6.92503L26.0638 7.91497C26.2147 7.89342 26.4596 7.88 26.8131 7.88V6.88ZM25.9931 6.92H25.9731V7.92H25.9931V6.92ZM25.9731 6.92C25.9941 6.92 26.0284 6.92327 26.0692 6.93875C26.1114 6.95475 26.1502 6.97992 26.1817 7.01145C26.2421 7.07186 26.2478 7.12574 26.2451 7.11056L25.2612 7.28944C25.2851 7.42093 25.3408 7.58481 25.4746 7.71855C25.6198 7.86381 25.8031 7.92 25.9731 7.92V6.92ZM38.2058 9L38.7058 9.00781V9H38.2058ZM38.1658 11.56L37.6658 11.5522V11.56H38.1658ZM38.7458 14.76L39.0993 14.4064L39.093 14.4001L39.0865 14.3941L38.7458 14.76ZM36.1658 14.48L36.663 14.4277L36.6627 14.4248L36.1658 14.48ZM36.1458 13.74L35.6458 13.7275V13.74H36.1458ZM36.2258 10.54L36.7258 10.5525V10.54H36.2258ZM34.2658 10.94L34.5362 11.3606L34.5362 11.3606L34.2658 10.94ZM33.6658 13.06L34.0562 12.7477L34.0562 12.7477L33.6658 13.06ZM34.8258 13.22L34.5738 12.7881L34.5655 12.793L34.5573 12.7982L34.8258 13.22ZM35.1058 13.06L35.1642 12.5634L35.0158 12.546L34.8822 12.6128L35.1058 13.06ZM34.8258 14.86L35.0969 15.2803L35.1062 15.274L34.8258 14.86ZM32.3458 15.02L32.1221 15.4673L32.1294 15.4708L32.3458 15.02ZM31.6458 14.48L32.049 14.1843L32.049 14.1843L31.6458 14.48ZM31.2858 13.8L30.8074 13.9456L30.8116 13.9593L30.8166 13.9729L31.2858 13.8ZM32.0258 10.76L31.6805 10.3983L31.6805 10.3983L32.0258 10.76ZM34.2858 9.56L34.1888 9.0695L34.1741 9.07241L34.1596 9.07619L34.2858 9.56ZM36.1858 8.9L35.7034 8.76844L35.7027 8.77117L36.1858 8.9ZM34.3458 7.4L34.6528 7.79468L34.6594 7.7895L34.6659 7.78411L34.3458 7.4ZM33.9858 8.12H33.4858V8.18155L33.5007 8.24127L33.9858 8.12ZM34.1058 8.6L34.6024 8.65842L34.6131 8.56752L34.5909 8.47873L34.1058 8.6ZM33.3858 9L33.3418 8.50193L33.3405 8.50205L33.3858 9ZM33.1658 9.02V9.52H33.1885L33.211 9.51795L33.1658 9.02ZM32.2058 8.72L31.8748 9.09507L31.8857 9.10411L32.2058 8.72ZM32.0658 7.22L31.6276 6.979L31.6233 6.98713L32.0658 7.22ZM32.6058 6.58L32.3058 6.18L32.3058 6.18L32.6058 6.58ZM33.5858 6.16L33.7174 6.64248L33.7269 6.63968L33.5858 6.16ZM35.8458 6L35.7874 6.49657L35.7874 6.49657L35.8458 6ZM36.7658 6.2L36.6328 6.682L36.6424 6.68465L36.6522 6.68692L36.7658 6.2ZM37.7458 6.76L37.3749 7.09557L37.3837 7.10483L37.7458 6.76ZM38.1658 7.66L37.6662 7.68081L37.6667 7.69208L37.6677 7.70331L38.1658 7.66ZM37.7058 8.99219L37.6658 11.5522L38.6657 11.5678L38.7057 9.00781L37.7058 8.99219ZM37.6658 11.56C37.6658 12.4603 37.7145 13.2039 37.8188 13.7792C37.918 14.3265 38.0843 14.8273 38.4051 15.1259L39.0865 14.3941C39.0206 14.3327 38.8969 14.1202 38.8028 13.6008C38.7137 13.1095 38.6658 12.433 38.6658 11.56H37.6658ZM38.3922 15.1136C38.3819 15.1032 38.3639 15.0818 38.3489 15.0481C38.3334 15.0131 38.3258 14.9755 38.3258 14.94H39.3258C39.3258 14.7229 39.233 14.5401 39.0993 14.4064L38.3922 15.1136ZM38.3258 14.94C38.3258 14.7757 38.4265 14.6833 38.4599 14.6602C38.4817 14.6451 38.4715 14.6586 38.3884 14.6778C38.2286 14.7147 37.9498 14.74 37.5258 14.74V15.74C37.9684 15.74 38.3396 15.7153 38.6132 15.6522C38.7467 15.6214 38.8991 15.5724 39.0291 15.4823C39.1709 15.3842 39.3258 15.2043 39.3258 14.94H38.3258ZM37.5258 14.74C37.1356 14.74 36.9084 14.6799 36.7897 14.6135C36.7016 14.5643 36.6723 14.5157 36.663 14.4277L35.6685 14.5323C35.7126 14.951 35.9366 15.2824 36.3019 15.4865C36.6365 15.6735 37.0626 15.74 37.5258 15.74V14.74ZM36.6627 14.4248C36.653 14.3371 36.6458 14.1186 36.6458 13.74H35.6458C35.6458 14.1081 35.6519 14.3829 35.6688 14.5352L36.6627 14.4248ZM36.6456 13.7525L36.7256 10.5525L35.7259 10.5275L35.6459 13.7275L36.6456 13.7525ZM36.7258 10.54C36.7258 10.3976 36.682 10.2048 36.515 10.0587C36.3608 9.92376 36.181 9.9 36.0658 9.9V10.9C36.0572 10.9 35.9574 10.8996 35.8565 10.8113C35.7429 10.7118 35.7258 10.5891 35.7258 10.54H36.7258ZM36.0658 9.9C35.3259 9.9 34.6326 10.1098 33.9954 10.5194L34.5362 11.3606C35.0189 11.0502 35.5256 10.9 36.0658 10.9V9.9ZM33.9954 10.5194C33.3236 10.9513 32.9258 11.5557 32.9258 12.32H33.9258C33.9258 11.9643 34.0879 11.6487 34.5362 11.3606L33.9954 10.5194ZM32.9258 12.32C32.9258 12.7095 33.0343 13.071 33.2753 13.3723L34.0562 12.7477C33.9773 12.649 33.9258 12.5171 33.9258 12.32H32.9258ZM33.2753 13.3723C33.5163 13.6735 33.8462 13.86 34.2458 13.86V12.86C34.192 12.86 34.1353 12.8465 34.0562 12.7477L33.2753 13.3723ZM34.2458 13.86C34.546 13.86 34.8423 13.8022 35.0942 13.6418L34.5573 12.7982C34.516 12.8245 34.4256 12.86 34.2458 12.86V13.86ZM35.0777 13.6519C35.1572 13.6055 35.2191 13.5697 35.2639 13.5441C35.3141 13.5154 35.331 13.5064 35.3294 13.5072L34.8822 12.6128C34.837 12.6354 34.7249 12.7 34.5738 12.7881L35.0777 13.6519ZM35.0474 13.5566C35.0181 13.5531 34.9799 13.5401 34.946 13.5134C34.9149 13.489 34.9061 13.468 34.9087 13.4735C34.9119 13.4803 34.9222 13.5061 34.9311 13.5607C34.9398 13.6143 34.9458 13.6864 34.9458 13.78H35.9458C35.9458 13.5247 35.9159 13.2647 35.8129 13.0465C35.6967 12.8004 35.4792 12.6005 35.1642 12.5634L35.0474 13.5566ZM34.9458 13.78C34.9458 14.0297 34.8429 14.2445 34.5454 14.446L35.1062 15.274C35.6353 14.9155 35.9458 14.4103 35.9458 13.78H34.9458ZM34.5547 14.4399C34.215 14.659 33.8748 14.76 33.5258 14.76V15.76C34.0834 15.76 34.6099 15.5943 35.0968 15.2801L34.5547 14.4399ZM33.5258 14.76C33.1307 14.76 32.8144 14.6903 32.5621 14.5692L32.1294 15.4708C32.5438 15.6697 33.0141 15.76 33.5258 15.76V14.76ZM32.5694 14.5728C32.2912 14.4337 32.1325 14.2982 32.049 14.1843L31.2426 14.7757C31.4524 15.0618 31.7604 15.2863 32.1222 15.4672L32.5694 14.5728ZM32.049 14.1843C31.9323 14.0252 31.8336 13.8405 31.755 13.6271L30.8166 13.9729C30.9247 14.2662 31.066 14.5348 31.2426 14.7757L32.049 14.1843ZM31.7641 13.6544C31.6797 13.3771 31.6458 13.1616 31.6458 13H30.6458C30.6458 13.2917 30.7052 13.6096 30.8074 13.9456L31.7641 13.6544ZM31.6458 13C31.6458 12.1808 31.8984 11.5728 32.371 11.1217L31.6805 10.3983C30.9799 11.0672 30.6458 11.9525 30.6458 13H31.6458ZM32.371 11.1217C32.8864 10.6297 33.56 10.2661 34.412 10.0438L34.1596 9.07619C33.1716 9.33392 32.3385 9.77028 31.6805 10.3983L32.371 11.1217ZM34.3828 10.0505C34.9966 9.92908 35.4852 9.80878 35.8348 9.68732C36.0078 9.62722 36.1681 9.55971 36.2979 9.48029C36.4029 9.41609 36.6027 9.27714 36.6689 9.02883L35.7027 8.77117C35.7422 8.62286 35.8428 8.58641 35.7761 8.62721C35.7343 8.65279 35.6504 8.69278 35.5067 8.74268C35.2231 8.84122 34.7882 8.95092 34.1888 9.0695L34.3828 10.0505ZM36.6682 9.03156C36.7273 8.81475 36.7458 8.50915 36.7458 8.16H35.7458C35.7458 8.50418 35.7243 8.69192 35.7034 8.76844L36.6682 9.03156ZM36.7458 8.16C36.7458 7.7272 36.6349 7.3113 36.326 7.00816C36.0189 6.70671 35.6005 6.6 35.1658 6.6V7.6C35.451 7.6 35.5727 7.66996 35.6255 7.72184C35.6767 7.77203 35.7458 7.88613 35.7458 8.16H36.7458ZM35.1658 6.6C34.7398 6.6 34.3537 6.74254 34.0257 7.01589L34.6659 7.78411C34.8179 7.65746 34.9785 7.6 35.1658 7.6V6.6ZM34.0388 7.00532C33.6822 7.28269 33.4858 7.66592 33.4858 8.12H34.4858C34.4858 7.98741 34.5294 7.89065 34.6528 7.79468L34.0388 7.00532ZM33.5007 8.24127L33.6207 8.72127L34.5909 8.47873L34.4709 7.99873L33.5007 8.24127ZM33.6092 8.54158C33.6125 8.51332 33.6244 8.48136 33.644 8.45489C33.6616 8.43119 33.6744 8.42658 33.663 8.43292C33.6507 8.43974 33.6207 8.45337 33.5645 8.46743C33.509 8.4813 33.4358 8.49365 33.3418 8.50193L33.4297 9.49806C33.6861 9.47544 33.9399 9.42303 34.1486 9.30708C34.3769 9.18026 34.5663 8.96487 34.6024 8.65842L33.6092 8.54158ZM33.3405 8.50205L33.1205 8.52205L33.211 9.51795L33.431 9.49795L33.3405 8.50205ZM33.1658 8.52C32.8493 8.52 32.6533 8.44206 32.5259 8.33589L31.8857 9.10411C32.2383 9.39794 32.6823 9.52 33.1658 9.52V8.52ZM32.5366 8.34508C32.4293 8.2504 32.3658 8.12639 32.3658 7.92H31.3658C31.3658 8.38028 31.5289 8.7896 31.875 9.09492L32.5366 8.34508ZM32.3658 7.92C32.3658 7.81076 32.4003 7.65791 32.5082 7.45287L31.6233 6.98713C31.4646 7.28876 31.3658 7.60257 31.3658 7.92H32.3658ZM32.5039 7.46096C32.6212 7.24774 32.7568 7.09177 32.9058 6.98L32.3058 6.18C32.0281 6.38823 31.8037 6.65893 31.6277 6.97904L32.5039 7.46096ZM32.9058 6.98C33.0451 6.87552 33.3012 6.75588 33.7173 6.64238L33.4542 5.67762C32.9904 5.80412 32.5931 5.96448 32.3058 6.18L32.9058 6.98ZM33.7269 6.63968C34.1408 6.51793 34.5265 6.46 34.8858 6.46V5.46C34.4184 5.46 33.9374 5.5354 33.4447 5.68032L33.7269 6.63968ZM34.8858 6.46C35.2925 6.46 35.5897 6.47332 35.7874 6.49657L35.9042 5.50342C35.6485 5.47335 35.3057 5.46 34.8858 5.46V6.46ZM35.7874 6.49657C35.9769 6.51887 36.2553 6.57784 36.6328 6.682L36.8987 5.718C36.503 5.60882 36.168 5.53446 35.9042 5.50342L35.7874 6.49657ZM36.6522 6.68692C36.9622 6.75925 37.196 6.89761 37.375 7.09546L38.1165 6.42454C37.7889 6.06239 37.3694 5.82741 36.8794 5.71308L36.6522 6.68692ZM37.3837 7.10483C37.5849 7.31611 37.6589 7.50585 37.6662 7.68081L38.6653 7.63918C38.646 7.17415 38.44 6.76388 38.1079 6.41517L37.3837 7.10483ZM37.6677 7.70331C37.6924 7.98799 37.7058 8.41736 37.7058 9H38.7058C38.7058 8.40931 38.6925 7.94535 38.6639 7.61668L37.6677 7.70331ZM46.5164 9.64L46.0175 9.60718L46.0145 9.65207L46.0196 9.69677L46.5164 9.64ZM46.5964 10.34H47.0964V10.3115L47.0932 10.2832L46.5964 10.34ZM44.5564 8.9L45.0347 9.04558L45.0347 9.04558L44.5564 8.9ZM44.4964 7.52L44.1001 7.82486L44.106 7.83259L44.1123 7.84009L44.4964 7.52ZM43.2564 7.54L42.9029 7.18645L42.9029 7.18645L43.2564 7.54ZM42.9364 8.08L43.4172 8.21736L43.4218 8.2012L43.4253 8.18476L42.9364 8.08ZM42.8564 8.36L42.3756 8.22264L42.3697 8.24359L42.3655 8.26499L42.8564 8.36ZM42.7764 12.72L42.277 12.7438L42.277 12.7444L42.7764 12.72ZM42.8564 13.86L42.3603 13.922L42.3608 13.9261L42.8564 13.86ZM42.2764 15.02L42.0586 14.5698L42.0471 14.5757L42.2764 15.02ZM40.4164 15.08L39.9228 15.0004L39.9164 15.0399V15.08H40.4164ZM40.5164 14.46L41.01 14.5396L41.0101 14.5394L40.5164 14.46ZM40.5964 6.12H40.0964V6.16951L40.1061 6.21806L40.5964 6.12ZM42.4564 6.62L42.9415 6.49873L42.9288 6.44815L42.906 6.40127L42.4564 6.62ZM42.7964 6.52L42.4798 6.13302L42.4798 6.13302L42.7964 6.52ZM45.4764 6.2L45.6635 5.7363L45.6592 5.73462L45.4764 6.2ZM46.6164 8.12L47.1153 8.15282L47.1164 8.13643V8.12H46.6164ZM46.0196 9.69677L46.0996 10.3968L47.0932 10.2832L47.0132 9.58323L46.0196 9.69677ZM46.0964 10.34C46.0964 10.3212 46.102 10.2815 46.1287 10.2393C46.1542 10.1988 46.1817 10.1835 46.183 10.1828C46.1832 10.1827 46.1776 10.1856 46.1642 10.1899C46.1508 10.1941 46.1314 10.1991 46.1048 10.2038C46.0506 10.2133 45.9758 10.22 45.8764 10.22V11.22C46.1441 11.22 46.422 11.1874 46.6498 11.0672C46.7711 11.0032 46.8886 10.9087 46.9742 10.7732C47.0608 10.636 47.0964 10.4855 47.0964 10.34H46.0964ZM45.8764 10.22C45.4382 10.22 45.2008 10.1349 45.0823 10.0457C44.9904 9.97646 44.9164 9.86552 44.9164 9.62H43.9164C43.9164 10.1078 44.0857 10.5469 44.4805 10.8443C44.8487 11.1217 45.3413 11.22 45.8764 11.22V10.22ZM44.9164 9.62C44.9164 9.52141 44.9458 9.33788 45.0347 9.04558L44.0781 8.75442C43.9804 9.07545 43.9164 9.37192 43.9164 9.62H44.9164ZM45.0347 9.04558C45.137 8.70959 45.1964 8.39172 45.1964 8.1H44.1964C44.1964 8.26161 44.1625 8.47708 44.0781 8.75442L45.0347 9.04558ZM45.1964 8.1C45.1964 7.76745 45.0955 7.45793 44.8805 7.19991L44.1123 7.84009C44.1639 7.90207 44.1964 7.97922 44.1964 8.1H45.1964ZM44.8927 7.21514C44.649 6.89827 44.2971 6.76 43.9164 6.76V7.76C44.0423 7.76 44.0772 7.79506 44.1001 7.82486L44.8927 7.21514ZM43.9164 6.76C43.5244 6.76 43.1789 6.91041 42.9029 7.18645L43.61 7.89355C43.7073 7.79626 43.8018 7.76 43.9164 7.76V6.76ZM42.9029 7.18645C42.6805 7.40877 42.5127 7.67093 42.4475 7.97523L43.4253 8.18476C43.4401 8.11573 43.4856 8.0179 43.61 7.89355L42.9029 7.18645ZM42.4556 7.94264L42.3756 8.22264L43.3372 8.49736L43.4172 8.21736L42.4556 7.94264ZM42.3655 8.26499C42.2756 8.72964 42.2364 9.46523 42.2364 10.44H43.2364C43.2364 9.4681 43.2772 8.81702 43.3473 8.45501L42.3655 8.26499ZM42.2364 10.44C42.2364 11.4032 42.2498 12.1722 42.277 12.7438L43.2758 12.6962C43.2497 12.1478 43.2364 11.3968 43.2364 10.44H42.2364ZM42.277 12.7444C42.3036 13.2902 42.331 13.6876 42.3603 13.922L43.3525 13.798C43.3285 13.6057 43.3025 13.2431 43.2758 12.6956L42.277 12.7444ZM42.3608 13.9261C42.3739 14.0245 42.3834 14.1004 42.3895 14.1552C42.3925 14.1827 42.3945 14.2027 42.3956 14.2165C42.3971 14.2335 42.3964 14.2316 42.3964 14.22H43.3964C43.3964 14.1382 43.3764 13.9766 43.352 13.7939L42.3608 13.9261ZM42.3964 14.22C42.3964 14.2898 42.3751 14.4168 42.0586 14.5699L42.4942 15.4701C43.0044 15.2232 43.3964 14.8169 43.3964 14.22H42.3964ZM42.0471 14.5757C41.6957 14.7571 41.3604 14.84 41.0364 14.84V15.84C41.5391 15.84 42.0305 15.7096 42.5057 15.4643L42.0471 14.5757ZM41.0364 14.84C40.9494 14.84 40.883 14.8354 40.8344 14.8286C40.7841 14.8215 40.7645 14.8138 40.7648 14.8139C40.7659 14.8144 40.7755 14.8185 40.79 14.8286C40.8048 14.839 40.8256 14.8563 40.8466 14.8826C40.8943 14.9427 40.9164 15.0157 40.9164 15.08H39.9164C39.9164 15.231 39.9644 15.3798 40.0637 15.5049C40.157 15.6222 40.2748 15.6928 40.378 15.7361C40.5745 15.8185 40.8099 15.84 41.0364 15.84V14.84ZM40.91 15.1596L41.01 14.5396L40.0228 14.3804L39.9228 15.0004L40.91 15.1596ZM41.0101 14.5394C41.2027 13.3425 41.2964 11.7997 41.2964 9.92H40.2964C40.2964 11.7736 40.2035 13.2575 40.0228 14.3806L41.0101 14.5394ZM41.2964 9.92C41.2964 8.05848 41.2311 6.74412 41.0867 6.02194L40.1061 6.21806C40.2283 6.82921 40.2964 8.04818 40.2964 9.92H41.2964ZM41.0964 6.12C41.0964 6.1549 41.088 6.2095 41.0545 6.26693C41.0212 6.32418 40.9783 6.35765 40.9495 6.37412C40.9237 6.38884 40.9114 6.38899 40.9262 6.38617C40.9401 6.38352 40.9688 6.38 41.0164 6.38V5.38C40.8452 5.38 40.6358 5.40159 40.4533 5.50588C40.2291 5.63404 40.0964 5.85884 40.0964 6.12H41.0964ZM41.0164 6.38C41.6157 6.38 41.8775 6.573 42.0068 6.83873L42.906 6.40127C42.5553 5.68034 41.8571 5.38 41.0164 5.38V6.38ZM41.9713 6.74127C41.985 6.79598 42.0137 6.88975 42.0814 6.98C42.1596 7.08432 42.3066 7.2 42.5164 7.2V6.2C42.6995 6.2 42.8232 6.30234 42.8814 6.38C42.9291 6.44358 42.9411 6.49735 42.9415 6.49873L41.9713 6.74127ZM42.5164 7.2C42.6336 7.2 42.7251 7.16113 42.7616 7.14471C42.8092 7.12329 42.8521 7.09788 42.8868 7.07559C42.9568 7.03058 43.0337 6.9719 43.113 6.90698L42.4798 6.13302C42.4472 6.15966 42.4195 6.1814 42.3964 6.19875C42.3729 6.21636 42.3564 6.22772 42.346 6.23441C42.341 6.23765 42.3387 6.23896 42.3388 6.2389C42.3389 6.23883 42.34 6.23824 42.3419 6.23725C42.3438 6.23628 42.3469 6.23472 42.3512 6.23279C42.3588 6.22937 42.3752 6.22243 42.3985 6.21586C42.4106 6.21247 42.4263 6.20866 42.4452 6.20563C42.4639 6.20262 42.4881 6.2 42.5164 6.2V7.2ZM43.113 6.90698C43.4585 6.62432 43.8649 6.48 44.3564 6.48V5.48C43.6479 5.48 43.0143 5.69568 42.4798 6.13302L43.113 6.90698ZM44.3564 6.48C44.6626 6.48 44.9741 6.53987 45.2936 6.66538L45.6592 5.73462C45.232 5.56679 44.7968 5.48 44.3564 5.48V6.48ZM45.2893 6.66367C45.5786 6.7804 45.7731 6.94906 45.9015 7.16527C46.0336 7.38773 46.1164 7.6962 46.1164 8.12H47.1164C47.1164 7.57046 47.0092 7.07227 46.7613 6.65473C46.5097 6.23094 46.1342 5.92627 45.6635 5.73632L45.2893 6.66367ZM46.1175 8.08718L46.0175 9.60718L47.0153 9.67282L47.1153 8.15282L46.1175 8.08718ZM48.2258 7.2L47.7272 7.1626L47.7224 7.22645L47.7338 7.28944L48.2258 7.2ZM48.2858 6.4L47.7888 6.34478L47.7879 6.35368L47.7872 6.3626L48.2858 6.4ZM49.2658 6.22V6.72H49.7914L49.7652 6.19503L49.2658 6.22ZM49.1858 4.62H48.6858V4.63249L48.6864 4.64497L49.1858 4.62ZM49.8858 3.66L49.6285 3.23125L49.6285 3.23125L49.8858 3.66ZM51.3458 3.42L51.8404 3.49327L51.8458 3.45683V3.42H51.3458ZM51.1858 6.2L50.6861 6.18215L50.6676 6.7H51.1858V6.2ZM52.4858 6.98L52.9125 7.2408L52.9185 7.23052L52.4858 6.98ZM52.0058 7.36V7.86H52.025L52.0441 7.85853L52.0058 7.36ZM51.1658 7.36V6.86H50.6803L50.666 7.3453L51.1658 7.36ZM51.1658 12.3L50.6658 12.3096L50.6662 12.3192L51.1658 12.3ZM51.2458 13.88L50.7471 13.9169L50.7473 13.9183L51.2458 13.88ZM51.3258 14.72L50.8296 14.782L50.8315 14.7972L50.8343 14.8121L51.3258 14.72ZM51.4058 15.18L50.9108 15.2507L50.9156 15.2845L50.925 15.3174L51.4058 15.18ZM51.1858 15.58V16.08H51.205L51.2241 16.0785L51.1858 15.58ZM49.6258 15.36L49.4867 15.8403L49.4901 15.8412L49.6258 15.36ZM48.8658 14.6L48.3696 14.538L48.3658 14.5689V14.6H48.8658ZM49.2858 7.38H49.7858V6.88H49.2858V7.38ZM48.4658 7.42V7.92H48.5013L48.5365 7.91497L48.4658 7.42ZM48.7244 7.23739L48.7844 6.43739L47.7872 6.3626L47.7272 7.1626L48.7244 7.23739ZM48.7827 6.45522C48.7794 6.48495 48.7689 6.52887 48.7409 6.57615C48.7122 6.62459 48.6742 6.66115 48.6362 6.68559C48.5687 6.72895 48.5254 6.72 48.5658 6.72V5.72C48.4328 5.72 48.2562 5.74105 48.0954 5.84441C47.9098 5.96372 47.8105 6.15015 47.7888 6.34478L48.7827 6.45522ZM48.5658 6.72H49.2658V5.72H48.5658V6.72ZM49.7652 6.19503L49.6852 4.59503L48.6864 4.64497L48.7664 6.24497L49.7652 6.19503ZM49.6858 4.62V4.54H48.6858V4.62H49.6858ZM49.6858 4.54C49.6858 4.51199 49.7102 4.34846 50.143 4.08875L49.6285 3.23125C49.1281 3.53154 48.6858 3.95468 48.6858 4.54H49.6858ZM50.143 4.08875C50.5621 3.83729 50.8994 3.74 51.1658 3.74V2.74C50.6588 2.74 50.1428 2.92271 49.6285 3.23125L50.143 4.08875ZM51.1658 3.74C51.1623 3.74 51.0662 3.7405 50.9686 3.65371C50.8597 3.55694 50.8458 3.43999 50.8458 3.4H51.8458C51.8458 3.25334 51.8018 3.05639 51.633 2.90629C51.4753 2.76617 51.2893 2.74 51.1658 2.74V3.74ZM50.8458 3.4V3.42H51.8458V3.4H50.8458ZM50.8512 3.34672C50.7928 3.74067 50.739 4.69976 50.6861 6.18215L51.6855 6.21785C51.7392 4.71358 51.7921 3.81933 51.8404 3.49327L50.8512 3.34672ZM51.1858 6.7C51.7598 6.7 52.1787 6.68808 52.388 6.6532L52.2236 5.6668C52.1129 5.68525 51.7851 5.7 51.1858 5.7V6.7ZM52.388 6.6532C52.4673 6.63997 52.5266 6.63037 52.5668 6.62419C52.5872 6.62105 52.6005 6.61913 52.6081 6.61811C52.6121 6.61758 52.6122 6.61762 52.6097 6.61788C52.6084 6.61801 52.6047 6.61839 52.5994 6.61879C52.5956 6.61907 52.5828 6.62 52.5658 6.62V5.62C52.5221 5.62 52.4774 5.6267 52.4759 5.62689C52.4586 5.6292 52.4377 5.63228 52.4148 5.63581C52.3683 5.64296 52.3042 5.65336 52.2236 5.6668L52.388 6.6532ZM52.5658 6.62C52.516 6.62 52.4482 6.60869 52.379 6.56912C52.3095 6.52945 52.2648 6.4763 52.2389 6.43193C52.1959 6.35828 52.2058 6.31224 52.2058 6.36H53.2058C53.2058 6.24776 53.1923 6.08172 53.1027 5.92806C52.9889 5.73299 52.7886 5.62 52.5658 5.62V6.62ZM52.2058 6.36C52.2058 6.38577 52.1868 6.49852 52.0531 6.72948L52.9185 7.23052C53.0781 6.95481 53.2058 6.65423 53.2058 6.36H52.2058ZM52.0591 6.71927C52.0057 6.80667 51.9654 6.84717 51.9454 6.86298C51.9296 6.87551 51.9386 6.86369 51.9674 6.86147L52.0441 7.85853C52.4565 7.8268 52.7343 7.53217 52.9124 7.24072L52.0591 6.71927ZM52.0058 6.86H51.1658V7.86H52.0058V6.86ZM50.666 7.3453C50.6524 7.80672 50.6458 8.57992 50.6458 9.66H51.6458C51.6458 8.58008 51.6525 7.81995 51.6656 7.3747L50.666 7.3453ZM50.6458 9.66C50.6458 10.7284 50.6525 11.6119 50.6659 12.3096L51.6657 12.2904C51.6524 11.6015 51.6458 10.725 51.6458 9.66H50.6458ZM50.6662 12.3192C50.6929 13.0141 50.7198 13.5479 50.7471 13.9169L51.7444 13.8431C51.7184 13.4921 51.692 12.9725 51.6654 12.2808L50.6662 12.3192ZM50.7473 13.9183C50.7742 14.2688 50.8016 14.5575 50.8296 14.782L51.8219 14.658C51.7966 14.4558 51.7707 14.1846 51.7443 13.8417L50.7473 13.9183ZM50.8343 14.8121C50.8743 15.0251 50.8991 15.1691 50.9108 15.2507L51.9008 15.1093C51.8857 15.0042 51.8573 14.8416 51.8172 14.6279L50.8343 14.8121ZM50.925 15.3174C50.937 15.3592 50.944 15.387 50.9477 15.4035C50.9495 15.4116 50.9496 15.4132 50.9491 15.4098C50.9488 15.4079 50.9481 15.403 50.9474 15.3958C50.9468 15.3891 50.9458 15.3766 50.9458 15.36H51.9458C51.9458 15.2869 51.9309 15.2182 51.9239 15.1865C51.9142 15.143 51.9012 15.0941 51.8865 15.0426L50.925 15.3174ZM50.9458 15.36C50.9458 15.3393 50.9492 15.3013 50.9684 15.2554C50.9885 15.2074 51.02 15.1653 51.0578 15.1333C51.1271 15.0746 51.1816 15.0788 51.1474 15.0815L51.2241 16.0785C51.3633 16.0678 51.5478 16.0287 51.7038 15.8967C51.8794 15.7481 51.9458 15.5453 51.9458 15.36H50.9458ZM51.1858 15.08C50.7134 15.08 50.2391 15.0135 49.7615 14.8788L49.4901 15.8412C50.0525 15.9999 50.6181 16.08 51.1858 16.08V15.08ZM49.7648 14.8797C49.557 14.8196 49.4547 14.7518 49.4093 14.7064C49.3769 14.6741 49.3658 14.6481 49.3658 14.6H48.3658C48.3658 14.9119 48.4813 15.1926 48.7022 15.4136C48.9102 15.6215 49.1879 15.7538 49.4868 15.8403L49.7648 14.8797ZM49.3619 14.662C49.6448 12.3988 49.7858 9.97126 49.7858 7.38H48.7858C48.7858 9.93541 48.6467 12.3212 48.3696 14.538L49.3619 14.662ZM49.2858 6.88C48.9193 6.88 48.6176 6.89324 48.3951 6.92503L48.5365 7.91497C48.6873 7.89342 48.9323 7.88 49.2858 7.88V6.88ZM48.4658 6.92H48.4458V7.92H48.4658V6.92ZM48.4458 6.92C48.4668 6.92 48.5011 6.92327 48.5419 6.93875C48.584 6.95475 48.6228 6.97992 48.6543 7.01145C48.7147 7.07186 48.7205 7.12574 48.7177 7.11056L47.7338 7.28944C47.7578 7.42093 47.8135 7.58481 47.9472 7.71855C48.0925 7.86381 48.2757 7.92 48.4458 7.92V6.92ZM56.0584 4.3L56.0376 4.79957L56.048 4.8H56.0584V4.3ZM55.5784 4.28L55.5993 3.78043L55.5888 3.78H55.5784V4.28ZM54.8784 4.54L55.2945 4.81735L55.2995 4.80979L55.3043 4.80205L54.8784 4.54ZM54.7784 2.58L54.453 2.20037L54.4461 2.20636L54.4393 2.2126L54.7784 2.58ZM56.6384 2.58L56.2849 2.93355L56.2926 2.94123L56.3006 2.94858L56.6384 2.58ZM56.6984 4.1L57.0701 4.43448L57.078 4.42573L57.0854 4.41662L56.6984 4.1ZM54.4584 14.4L53.959 14.3764L53.9584 14.3882V14.4H54.4584ZM54.6784 9.74L55.1779 9.76358L55.1784 9.7518V9.74H54.6784ZM54.2984 7.48L53.8696 7.73732L53.876 7.74753L54.2984 7.48ZM54.0184 7.18L54.2834 6.756L54.233 6.72447L54.1765 6.70566L54.0184 7.18ZM54.9184 6.32L55.0766 6.79434L55.0766 6.79434L54.9184 6.32ZM56.8984 6.22H57.3984V6.1992L57.3967 6.17848L56.8984 6.22ZM56.7784 8.5L56.2794 8.46815L56.2792 8.47316L56.7784 8.5ZM56.9184 14.98L56.4677 15.1964L56.4777 15.2173L56.4897 15.2372L56.9184 14.98ZM54.6584 15.04L54.4348 15.4872L54.4348 15.4872L54.6584 15.04ZM56.0793 3.80043L55.5993 3.78043L55.5576 4.77957L56.0376 4.79957L56.0793 3.80043ZM55.5784 3.78C55.1781 3.78 54.7032 3.87078 54.4526 4.27795L55.3043 4.80205C55.287 4.83013 55.2715 4.82709 55.3075 4.81371C55.3496 4.7981 55.4336 4.78 55.5784 4.78V3.78ZM54.4624 4.26265C54.4807 4.23529 54.5162 4.19226 54.5762 4.15625C54.6396 4.11823 54.7106 4.1 54.7784 4.1V5.1C55.021 5.1 55.1966 4.96421 55.2945 4.81735L54.4624 4.26265ZM54.7784 4.1C54.8299 4.1 54.8843 4.1115 54.9352 4.13611C54.9846 4.16001 55.0184 4.19021 55.0389 4.21335C55.0746 4.25367 55.0743 4.27674 55.0629 4.23833C55.0405 4.1624 55.0184 4.0008 55.0184 3.72H54.0184C54.0184 4.02586 54.0397 4.30426 54.1039 4.52167C54.1359 4.62992 54.1898 4.76299 54.2905 4.87665C54.4041 5.00483 54.5725 5.1 54.7784 5.1V4.1ZM55.0184 3.72C55.0184 3.43967 55.0391 3.23573 55.0709 3.09618C55.1051 2.94653 55.1393 2.92736 55.1176 2.9474L54.4393 2.2126C54.2443 2.39264 54.1485 2.64347 54.096 2.87382C54.0411 3.11427 54.0184 3.40033 54.0184 3.72H55.0184ZM55.1038 2.95963C55.1516 2.91868 55.3133 2.84 55.7184 2.84V1.84C55.2436 1.84 54.7786 1.92132 54.453 2.20037L55.1038 2.95963ZM55.7184 2.84C55.9191 2.84 56.0636 2.85807 56.1622 2.88381C56.2623 2.90992 56.288 2.93667 56.2849 2.93355L56.992 2.22645C56.6799 1.91436 56.189 1.84 55.7184 1.84V2.84ZM56.3006 2.94858C56.3063 2.95381 56.3784 3.03151 56.3784 3.34H57.3784C57.3784 2.92849 57.2906 2.49953 56.9763 2.21142L56.3006 2.94858ZM56.3784 3.34C56.3784 3.4948 56.3653 3.60713 56.3469 3.68477C56.3282 3.76368 56.3089 3.78645 56.3115 3.78338L57.0854 4.41662C57.3202 4.12964 57.3784 3.72544 57.3784 3.34H56.3784ZM56.3268 3.76552C56.3399 3.75092 56.3412 3.75966 56.2993 3.77276C56.2551 3.78657 56.1786 3.8 56.0584 3.8V4.8C56.4113 4.8 56.8061 4.72781 57.0701 4.43448L56.3268 3.76552ZM54.9579 14.4236L55.1779 9.76358L54.179 9.71642L53.959 14.3764L54.9579 14.4236ZM55.1784 9.74C55.1784 9.17006 55.146 8.67532 55.0765 8.26209C55.0081 7.85523 54.8983 7.49268 54.7208 7.21247L53.876 7.74753C53.9519 7.86732 54.0321 8.08144 54.0904 8.42791C54.1475 8.76801 54.1784 9.20328 54.1784 9.74H55.1784ZM54.7272 7.22275C54.616 7.03739 54.4711 6.87327 54.2834 6.756L53.7534 7.604C53.7791 7.62006 53.8209 7.65595 53.8697 7.73725L54.7272 7.22275ZM54.1765 6.70566C54.2074 6.71595 54.273 6.7461 54.3284 6.82C54.3855 6.89614 54.3984 6.97407 54.3984 7.02H53.3984C53.3984 7.14593 53.4313 7.29053 53.5284 7.42C53.6239 7.54724 53.7494 7.61738 53.8603 7.65434L54.1765 6.70566ZM54.3984 7.02C54.3984 7.15497 54.3054 7.16715 54.4364 7.07726C54.5496 6.99951 54.7534 6.90207 55.0766 6.79434L54.7603 5.84566C54.4035 5.9646 54.0972 6.09715 53.8705 6.25274C53.6615 6.39619 53.3984 6.64503 53.3984 7.02H54.3984ZM55.0766 6.79434C55.7555 6.56804 56.1806 6.48 56.3984 6.48V5.48C56.003 5.48 55.4414 5.61863 54.7603 5.84566L55.0766 6.79434ZM56.3984 6.48C56.4588 6.48 56.5011 6.48386 56.5286 6.48838C56.5571 6.49307 56.5598 6.49687 56.5471 6.49076C56.5329 6.48395 56.4953 6.46253 56.4597 6.415C56.4218 6.36446 56.4041 6.30833 56.4002 6.26152L57.3967 6.17848C57.3728 5.89196 57.1942 5.69213 56.9798 5.58924C56.7965 5.50124 56.5862 5.48 56.3984 5.48V6.48ZM56.3984 6.22C56.3984 6.46671 56.3599 7.20716 56.2795 8.46815L57.2774 8.53185C57.3569 7.28618 57.3984 6.50662 57.3984 6.22H56.3984ZM56.2792 8.47316C56.212 9.72297 56.1784 11.0386 56.1784 12.42H57.1784C57.1784 11.0547 57.2116 9.75703 57.2777 8.52684L56.2792 8.47316ZM56.1784 12.42C56.1784 13.1142 56.1986 13.6881 56.2406 14.1367C56.2808 14.565 56.3454 14.9417 56.4677 15.1964L57.3692 14.7636C57.3315 14.685 57.2761 14.4684 57.2363 14.0433C57.1983 13.6385 57.1784 13.0991 57.1784 12.42H56.1784ZM56.4897 15.2372C56.4908 15.239 56.4878 15.2345 56.4845 15.2237C56.4812 15.2125 56.4784 15.1974 56.4784 15.18H57.4784C57.4784 15.0086 57.426 14.854 57.3472 14.7228L56.4897 15.2372ZM56.4784 15.18C56.4784 15.1392 56.4862 15.0936 56.5052 15.0483C56.5239 15.0033 56.5493 14.969 56.5728 14.9448C56.6157 14.9008 56.6482 14.8945 56.6266 14.9019C56.6084 14.9081 56.5673 14.9186 56.4943 14.927C56.423 14.9351 56.3318 14.94 56.2184 14.94V15.94C56.4869 15.94 56.7438 15.9187 56.9503 15.8481C57.1495 15.7799 57.4784 15.5912 57.4784 15.18H56.4784ZM56.2184 14.94C55.802 14.94 55.3582 14.8309 54.882 14.5928L54.4348 15.4872C55.0254 15.7825 55.6215 15.94 56.2184 15.94V14.94ZM54.882 14.5928C54.9863 14.6449 54.9986 14.7222 54.9857 14.6809C54.9738 14.6428 54.9584 14.5563 54.9584 14.4H53.9584C53.9584 14.6037 53.9764 14.8039 54.0312 14.9791C54.0849 15.1511 54.1972 15.3684 54.4348 15.4872L54.882 14.5928ZM64.8177 14.6L65.1352 14.9862L65.1361 14.9855L64.8177 14.6ZM59.9577 14.24L59.5611 14.5445L59.5638 14.548L59.9577 14.24ZM59.9977 7.64L60.4308 7.88991L60.4358 7.88096L59.9977 7.64ZM61.2577 6.38L61.013 5.94393L61.013 5.94393L61.2577 6.38ZM65.5177 7.04L65.0903 7.29949L65.0906 7.29997L65.5177 7.04ZM64.9977 9.56L65.2429 9.99596L65.2549 9.98875L64.9977 9.56ZM63.9577 9.72L63.8364 10.2051L63.869 10.2132L63.9024 10.2169L63.9577 9.72ZM63.5177 9.44L63.8431 9.06037L63.8431 9.06037L63.5177 9.44ZM63.2377 8.78L62.7397 8.73473L62.7377 8.75732V8.78H63.2377ZM63.5777 8.42L63.7781 8.87808L63.8074 8.86523L63.8349 8.84875L63.5777 8.42ZM62.3377 7.22L62.6027 7.64405L62.6093 7.63978L62.3377 7.22ZM61.7977 7.76L62.2098 8.04338L62.2174 8.03163L61.7977 7.76ZM61.3777 8.8L60.8958 8.66615L60.8934 8.67548L61.3777 8.8ZM61.2377 11.14L60.7411 11.1984L60.7431 11.2154L60.7462 11.2321L61.2377 11.14ZM61.4577 12.04L60.9757 12.173L60.9784 12.183L60.9816 12.193L61.4577 12.04ZM62.0977 12.96L61.7894 13.3538L61.7977 13.36L62.0977 12.96ZM64.7577 12.62L64.3912 12.2798L64.3886 12.2826L64.7577 12.62ZM65.1777 11.94L64.7304 11.7164L64.7211 11.735L64.7134 11.7543L65.1777 11.94ZM65.6377 12.12L65.1509 12.2345L65.1551 12.252L65.1604 12.2691L65.6377 12.12ZM65.2377 12.7C65.2377 13.303 65.0038 13.7977 64.4992 14.2145L65.1361 14.9855C65.8582 14.3889 66.2377 13.617 66.2377 12.7H65.2377ZM64.5001 14.2138C63.9971 14.6274 63.3919 14.84 62.6577 14.84V15.84C63.6034 15.84 64.4382 15.5593 65.1352 14.9862L64.5001 14.2138ZM62.6577 14.84C61.532 14.84 60.8018 14.5079 60.3516 13.932L59.5638 14.548C60.2602 15.4388 61.33 15.84 62.6577 15.84V14.84ZM60.3542 13.9355C59.8678 13.302 59.5977 12.4143 59.5977 11.22H58.5977C58.5977 12.559 58.9008 13.6847 59.5611 14.5445L60.3542 13.9355ZM59.5977 11.22C59.5977 9.95015 59.8797 8.84497 60.4307 7.88986L59.5646 7.39014C58.9156 8.51503 58.5977 9.79651 58.5977 11.22H59.5977ZM60.4358 7.88096C60.6827 7.43199 61.0345 7.07848 61.5023 6.81607L61.013 5.94393C60.3875 6.29485 59.8993 6.78135 59.5595 7.39904L60.4358 7.88096ZM61.5023 6.81607C61.9624 6.55795 62.5153 6.42 63.1777 6.42V5.42C62.3733 5.42 61.6462 5.58872 61.013 5.94393L61.5023 6.81607ZM63.1777 6.42C64.1632 6.42 64.7523 6.74284 65.0903 7.29949L65.9451 6.78051C65.3763 5.84382 64.4055 5.42 63.1777 5.42V6.42ZM65.0906 7.29997C65.2227 7.51705 65.2977 7.78424 65.2977 8.12H66.2977C66.2977 7.6291 66.186 7.17628 65.9448 6.78003L65.0906 7.29997ZM65.2977 8.12C65.2977 8.59061 65.1179 8.90478 64.7404 9.13125L65.2549 9.98875C65.9441 9.57522 66.2977 8.92939 66.2977 8.12H65.2977ZM64.7525 9.12421C64.5914 9.21483 64.4758 9.24 64.3977 9.24V10.24C64.6929 10.24 64.9772 10.1452 65.2428 9.99579L64.7525 9.12421ZM64.3977 9.24C64.2356 9.24 64.1086 9.23369 64.0129 9.22306L63.9024 10.2169C64.0468 10.233 64.2131 10.24 64.3977 10.24V9.24ZM64.0789 9.23493C64.099 9.23994 64.0872 9.24071 64.0361 9.20817C63.989 9.1782 63.9251 9.13073 63.8431 9.06037L63.1923 9.81963C63.3823 9.98248 63.6061 10.1475 63.8364 10.2051L64.0789 9.23493ZM63.8431 9.06037C63.7833 9.00916 63.7377 8.93665 63.7377 8.78H62.7377C62.7377 9.18335 62.8787 9.55084 63.1923 9.81963L63.8431 9.06037ZM63.7356 8.82527C63.7336 8.84745 63.7274 8.86974 63.718 8.88953C63.7089 8.9087 63.6996 8.91971 63.6962 8.92331C63.6932 8.92648 63.6961 8.92259 63.7098 8.91363C63.7235 8.90468 63.7454 8.89237 63.7781 8.87808L63.3772 7.96192C63.101 8.08279 62.7778 8.31616 62.7397 8.73473L63.7356 8.82527ZM63.8349 8.84875C64.2325 8.61018 64.3777 8.19948 64.3777 7.78H63.3777C63.3777 7.88122 63.3609 7.93439 63.3499 7.95778C63.3417 7.97542 63.3343 7.98295 63.3204 7.99125L63.8349 8.84875ZM64.3777 7.78C64.3777 7.41231 64.2594 7.05597 63.953 6.80694C63.6663 6.57405 63.2925 6.5 62.9177 6.5V7.5C63.1829 7.5 63.289 7.55595 63.3224 7.58306C63.3359 7.59403 63.3777 7.62769 63.3777 7.78H64.3777ZM62.9177 6.5C62.6156 6.5 62.324 6.63326 62.066 6.80021L62.6093 7.63978C62.8046 7.5134 62.8997 7.5 62.9177 7.5V6.5ZM62.0727 6.796C61.7927 6.97096 61.5614 7.20477 61.3779 7.48837L62.2174 8.03163C62.3273 7.8619 62.4559 7.7357 62.6027 7.644L62.0727 6.796ZM61.3856 7.47674C61.1906 7.76043 61.033 8.17265 60.8959 8.66618L61.8594 8.93382C61.989 8.46735 62.1114 8.18623 62.2097 8.04326L61.3856 7.47674ZM60.8934 8.67548C60.7639 9.179 60.6977 9.67422 60.6977 10.16H61.6977C61.6977 9.76578 61.7514 9.35433 61.8619 8.92452L60.8934 8.67548ZM60.6977 10.16C60.6977 10.5925 60.711 10.9424 60.7411 11.1984L61.7342 11.0816C61.711 10.8843 61.6977 10.5808 61.6977 10.16H60.6977ZM60.7462 11.2321C60.7901 11.4662 60.8678 11.7821 60.9757 12.173L61.9397 11.907C61.8342 11.5246 61.7652 11.2405 61.7291 11.0479L60.7462 11.2321ZM60.9816 12.193C61.132 12.6609 61.4035 13.0516 61.7895 13.3538L62.4058 12.5662C62.1785 12.3884 62.0233 12.1658 61.9337 11.887L60.9816 12.193ZM61.7977 13.36C62.2181 13.6753 62.7215 13.82 63.2777 13.82V12.82C62.9005 12.82 62.6173 12.7247 62.3977 12.56L61.7977 13.36ZM63.2777 13.82C63.9969 13.82 64.6188 13.5129 65.1267 12.9574L64.3886 12.2826C64.0432 12.6605 63.6784 12.82 63.2777 12.82V13.82ZM65.1241 12.9602C65.3442 12.7231 65.5153 12.4422 65.6419 12.1257L64.7134 11.7543C64.6267 11.9711 64.5178 12.1435 64.3913 12.2798L65.1241 12.9602ZM65.6249 12.1636C65.6312 12.151 65.6209 12.1777 65.58 12.2104C65.5311 12.2496 65.4591 12.28 65.3777 12.28V11.28C65.0228 11.28 64.822 11.5334 64.7304 11.7164L65.6249 12.1636ZM65.3777 12.28C65.3252 12.28 65.2702 12.2667 65.221 12.2397C65.1743 12.2141 65.1474 12.1843 65.1355 12.1687C65.1242 12.154 65.1237 12.1486 65.1291 12.1616C65.1342 12.1741 65.1422 12.1973 65.1509 12.2345L66.1244 12.0055C66.0905 11.8616 66.0347 11.6985 65.9298 11.5613C65.812 11.4072 65.6237 11.28 65.3777 11.28V12.28ZM65.1604 12.2691C65.2161 12.4474 65.2377 12.5894 65.2377 12.7H66.2377C66.2377 12.4639 66.1925 12.2193 66.1149 11.9709L65.1604 12.2691ZM74.4753 9L74.9753 9.00781V9H74.4753ZM74.4353 11.56L73.9353 11.5522V11.56H74.4353ZM75.0153 14.76L75.3689 14.4064L75.3626 14.4001L75.356 14.3941L75.0153 14.76ZM72.4353 14.48L72.9326 14.4277L72.9323 14.4248L72.4353 14.48ZM72.4153 13.74L71.9153 13.7275V13.74H72.4153ZM72.4953 10.54L72.9953 10.5525V10.54H72.4953ZM70.5353 10.94L70.8057 11.3606L70.8057 11.3606L70.5353 10.94ZM69.9353 13.06L70.3257 12.7477L70.3257 12.7477L69.9353 13.06ZM71.0953 13.22L70.8434 12.7881L70.835 12.793L70.8269 12.7982L71.0953 13.22ZM71.3753 13.06L71.4337 12.5634L71.2853 12.546L71.1517 12.6128L71.3753 13.06ZM71.0953 14.86L71.3664 15.2803L71.3757 15.274L71.0953 14.86ZM68.6153 15.02L68.3917 15.4673L68.3989 15.4708L68.6153 15.02ZM67.9153 14.48L68.3185 14.1843L68.3185 14.1843L67.9153 14.48ZM67.5553 13.8L67.077 13.9456L67.0812 13.9593L67.0861 13.9729L67.5553 13.8ZM68.2953 10.76L67.9501 10.3983L67.9501 10.3983L68.2953 10.76ZM70.5553 9.56L70.4583 9.0695L70.4436 9.07241L70.4291 9.07619L70.5553 9.56ZM72.4553 8.9L71.9729 8.76844L71.9722 8.77117L72.4553 8.9ZM70.6153 7.4L70.9223 7.79468L70.9289 7.7895L70.9354 7.78411L70.6153 7.4ZM70.2553 8.12H69.7553V8.18155L69.7702 8.24127L70.2553 8.12ZM70.3753 8.6L70.8719 8.65842L70.8826 8.56752L70.8604 8.47873L70.3753 8.6ZM69.6553 9L69.6114 8.50193L69.61 8.50205L69.6553 9ZM69.4353 9.02V9.52H69.458L69.4806 9.51795L69.4353 9.02ZM68.4753 8.72L68.1444 9.09507L68.1552 9.10411L68.4753 8.72ZM68.3353 7.22L67.8971 6.979L67.8929 6.98713L68.3353 7.22ZM68.8753 6.58L68.5753 6.18L68.5753 6.18L68.8753 6.58ZM69.8553 6.16L69.9869 6.64248L69.9964 6.63968L69.8553 6.16ZM72.1153 6L72.0569 6.49657L72.0569 6.49657L72.1153 6ZM73.0353 6.2L72.9023 6.682L72.912 6.68465L72.9217 6.68692L73.0353 6.2ZM74.0153 6.76L73.6444 7.09557L73.6532 7.10483L74.0153 6.76ZM74.4353 7.66L73.9357 7.68081L73.9362 7.69208L73.9372 7.70331L74.4353 7.66ZM73.9754 8.99219L73.9354 11.5522L74.9353 11.5678L74.9753 9.00781L73.9754 8.99219ZM73.9353 11.56C73.9353 12.4603 73.9841 13.2039 74.0883 13.7792C74.1875 14.3265 74.3538 14.8273 74.6746 15.1259L75.356 14.3941C75.2901 14.3327 75.1664 14.1202 75.0723 13.6008C74.9832 13.1095 74.9353 12.433 74.9353 11.56H73.9353ZM74.6618 15.1136C74.6514 15.1032 74.6334 15.0818 74.6184 15.0481C74.6029 15.0131 74.5953 14.9755 74.5953 14.94H75.5953C75.5953 14.7229 75.5025 14.5401 75.3689 14.4064L74.6618 15.1136ZM74.5953 14.94C74.5953 14.7757 74.6961 14.6833 74.7295 14.6602C74.7512 14.6451 74.7411 14.6586 74.6579 14.6778C74.4982 14.7147 74.2193 14.74 73.7953 14.74V15.74C74.238 15.74 74.6091 15.7153 74.8827 15.6522C75.0162 15.6214 75.1686 15.5724 75.2987 15.4823C75.4404 15.3842 75.5953 15.2043 75.5953 14.94H74.5953ZM73.7953 14.74C73.4052 14.74 73.1779 14.6799 73.0592 14.6135C72.9711 14.5643 72.9418 14.5157 72.9326 14.4277L71.9381 14.5323C71.9821 14.951 72.2062 15.2824 72.5714 15.4865C72.906 15.6735 73.3321 15.74 73.7953 15.74V14.74ZM72.9323 14.4248C72.9225 14.3371 72.9153 14.1186 72.9153 13.74H71.9153C71.9153 14.1081 71.9214 14.3829 71.9384 14.5352L72.9323 14.4248ZM72.9152 13.7525L72.9952 10.5525L71.9955 10.5275L71.9155 13.7275L72.9152 13.7525ZM72.9953 10.54C72.9953 10.3976 72.9515 10.2048 72.7846 10.0587C72.6303 9.92376 72.4505 9.9 72.3353 9.9V10.9C72.3268 10.9 72.227 10.8996 72.1261 10.8113C72.0124 10.7118 71.9953 10.5891 71.9953 10.54H72.9953ZM72.3353 9.9C71.5955 9.9 70.9022 10.1098 70.2649 10.5194L70.8057 11.3606C71.2885 11.0502 71.7952 10.9 72.3353 10.9V9.9ZM70.2649 10.5194C69.5932 10.9513 69.1953 11.5557 69.1953 12.32H70.1953C70.1953 11.9643 70.3575 11.6487 70.8057 11.3606L70.2649 10.5194ZM69.1953 12.32C69.1953 12.7095 69.3038 13.071 69.5449 13.3723L70.3257 12.7477C70.2468 12.649 70.1953 12.5171 70.1953 12.32H69.1953ZM69.5449 13.3723C69.7858 13.6735 70.1157 13.86 70.5153 13.86V12.86C70.4616 12.86 70.4048 12.8465 70.3257 12.7477L69.5449 13.3723ZM70.5153 13.86C70.8155 13.86 71.1118 13.8022 71.3638 13.6418L70.8269 12.7982C70.7855 12.8245 70.6951 12.86 70.5153 12.86V13.86ZM71.3472 13.6519C71.4267 13.6055 71.4886 13.5697 71.5334 13.5441C71.5837 13.5154 71.6006 13.5064 71.5989 13.5072L71.1517 12.6128C71.1066 12.6354 70.9944 12.7 70.8434 12.7881L71.3472 13.6519ZM71.3169 13.5566C71.2877 13.5531 71.2495 13.5401 71.2155 13.5134C71.1844 13.489 71.1756 13.468 71.1782 13.4735C71.1814 13.4803 71.1917 13.5061 71.2006 13.5607C71.2094 13.6143 71.2153 13.6864 71.2153 13.78H72.2153C72.2153 13.5247 72.1855 13.2647 72.0824 13.0465C71.9662 12.8004 71.7487 12.6005 71.4337 12.5634L71.3169 13.5566ZM71.2153 13.78C71.2153 14.0297 71.1124 14.2445 70.8149 14.446L71.3757 15.274C71.9048 14.9155 72.2153 14.4103 72.2153 13.78H71.2153ZM70.8242 14.4399C70.4846 14.659 70.1443 14.76 69.7953 14.76V15.76C70.353 15.76 70.8794 15.5943 71.3664 15.2801L70.8242 14.4399ZM69.7953 14.76C69.4003 14.76 69.084 14.6903 68.8317 14.5692L68.3989 15.4708C68.8133 15.6697 69.2837 15.76 69.7953 15.76V14.76ZM68.8389 14.5728C68.5607 14.4337 68.4021 14.2982 68.3185 14.1843L67.5121 14.7757C67.7219 15.0618 68.0299 15.2863 68.3917 15.4672L68.8389 14.5728ZM68.3185 14.1843C68.2018 14.0252 68.1031 13.8405 68.0245 13.6271L67.0861 13.9729C67.1942 14.2662 67.3355 14.5348 67.5121 14.7757L68.3185 14.1843ZM68.0336 13.6544C67.9492 13.3771 67.9153 13.1616 67.9153 13H66.9153C66.9153 13.2917 66.9747 13.6096 67.077 13.9456L68.0336 13.6544ZM67.9153 13C67.9153 12.1808 68.1679 11.5728 68.6406 11.1217L67.9501 10.3983C67.2494 11.0672 66.9153 11.9525 66.9153 13H67.9153ZM68.6406 11.1217C69.1559 10.6297 69.8295 10.2661 70.6815 10.0438L70.4291 9.07619C69.4411 9.33392 68.608 9.77028 67.9501 10.3983L68.6406 11.1217ZM70.6523 10.0505C71.2662 9.92908 71.7547 9.80878 72.1044 9.68732C72.2774 9.62722 72.4376 9.55971 72.5675 9.48029C72.6724 9.41609 72.8722 9.27714 72.9384 9.02883L71.9722 8.77117C72.0117 8.62286 72.1124 8.58641 72.0457 8.62721C72.0038 8.65279 71.9199 8.69278 71.7762 8.74268C71.4926 8.84122 71.0578 8.95092 70.4583 9.0695L70.6523 10.0505ZM72.9377 9.03156C72.9968 8.81475 73.0153 8.50915 73.0153 8.16H72.0153C72.0153 8.50418 71.9938 8.69192 71.9729 8.76844L72.9377 9.03156ZM73.0153 8.16C73.0153 7.7272 72.9044 7.3113 72.5955 7.00816C72.2884 6.70671 71.8701 6.6 71.4353 6.6V7.6C71.7206 7.6 71.8422 7.66996 71.8951 7.72184C71.9462 7.77203 72.0153 7.88613 72.0153 8.16H73.0153ZM71.4353 6.6C71.0093 6.6 70.6232 6.74254 70.2952 7.01589L70.9354 7.78411C71.0874 7.65746 71.248 7.6 71.4353 7.6V6.6ZM70.3083 7.00532C69.9517 7.28269 69.7553 7.66592 69.7553 8.12H70.7553C70.7553 7.98741 70.7989 7.89065 70.9223 7.79468L70.3083 7.00532ZM69.7702 8.24127L69.8902 8.72127L70.8604 8.47873L70.7404 7.99873L69.7702 8.24127ZM69.8787 8.54158C69.8821 8.51332 69.8939 8.48136 69.9135 8.45489C69.9311 8.43119 69.9439 8.42658 69.9325 8.43292C69.9202 8.43974 69.8903 8.45337 69.834 8.46743C69.7785 8.4813 69.7053 8.49365 69.6114 8.50193L69.6993 9.49806C69.9557 9.47544 70.2094 9.42303 70.4181 9.30708C70.6464 9.18026 70.8358 8.96487 70.8719 8.65842L69.8787 8.54158ZM69.61 8.50205L69.39 8.52205L69.4806 9.51795L69.7006 9.49795L69.61 8.50205ZM69.4353 8.52C69.1188 8.52 68.9228 8.44206 68.7954 8.33589L68.1552 9.10411C68.5078 9.39794 68.9518 9.52 69.4353 9.52V8.52ZM68.8061 8.34508C68.6988 8.2504 68.6353 8.12639 68.6353 7.92H67.6353C67.6353 8.38028 67.7985 8.7896 68.1445 9.09492L68.8061 8.34508ZM68.6353 7.92C68.6353 7.81076 68.6699 7.65791 68.7778 7.45287L67.8929 6.98713C67.7341 7.28876 67.6353 7.60257 67.6353 7.92H68.6353ZM68.7734 7.46096C68.8907 7.24774 69.0263 7.09177 69.1753 6.98L68.5753 6.18C68.2977 6.38823 68.0733 6.65893 67.8972 6.97904L68.7734 7.46096ZM69.1753 6.98C69.3146 6.87552 69.5707 6.75588 69.9869 6.64238L69.7238 5.67762C69.2599 5.80412 68.8627 5.96448 68.5753 6.18L69.1753 6.98ZM69.9964 6.63968C70.4103 6.51793 70.796 6.46 71.1553 6.46V5.46C70.688 5.46 70.207 5.5354 69.7142 5.68032L69.9964 6.63968ZM71.1553 6.46C71.562 6.46 71.8592 6.47332 72.0569 6.49657L72.1737 5.50342C71.9181 5.47335 71.5752 5.46 71.1553 5.46V6.46ZM72.0569 6.49657C72.2464 6.51887 72.5248 6.57784 72.9023 6.682L73.1683 5.718C72.7725 5.60882 72.4376 5.53446 72.1737 5.50342L72.0569 6.49657ZM72.9217 6.68692C73.2317 6.75925 73.4655 6.89761 73.6445 7.09546L74.3861 6.42454C74.0584 6.06239 73.6389 5.82741 73.1489 5.71308L72.9217 6.68692ZM73.6532 7.10483C73.8545 7.31611 73.9285 7.50585 73.9357 7.68081L74.9349 7.63918C74.9155 7.17415 74.7095 6.76388 74.3774 6.41517L73.6532 7.10483ZM73.9372 7.70331C73.9619 7.98799 73.9753 8.41736 73.9753 9H74.9753C74.9753 8.40931 74.962 7.94535 74.9334 7.61668L73.9372 7.70331Z" fill="#FFFCFC"/>
</g>
<defs>
<filter id="filter0_d_0_1" x="0.0599976" y="0.399994" width="79.0353" height="23.18" filterUnits="userSpaceOnUse" color-interpolation-filters="sRGB">
<feFlood flood-opacity="0" result="BackgroundImageFix"/>
<feColorMatrix in="SourceAlpha" type="matrix" values="0 0 0 0 0 0 0 0 0 0 0 0 0 0 0 0 0 0 127 0" result="hardAlpha"/>
<feOffset dy="4"/>
<feGaussianBlur stdDeviation="2"/>
<feComposite in2="hardAlpha" operator="out"/>
<feColorMatrix type="matrix" values="0 0 0 0 0 0 0 0 0 0 0 0 0 0 0 0 0 0 0.25 0"/>
<feBlend mode="normal" in2="BackgroundImageFix" result="effect1_dropShadow_0_1"/>
<feBlend mode="normal" in="SourceGraphic" in2="effect1_dropShadow_0_1" result="shape"/>
</filter>
</defs>
</svg>
